<svg xmlns="http://www.w3.org/2000/svg" viewBox="0 0 500 500"><g id="freepik--background-simple--inject-77"><path d="M464.75,367c27.74-55.46,29.61-129.36,10.46-188.6-16.49-51-53.18-89.91-95.57-113.08C330.47,38.47,271.86,30.47,219.09,47.44,205.21,51.9,191.7,56,178.61,63.32,125,93.37,135.32,167.41,116.49,193.17c-15.83,21.67-46.12,15.28-65.21,31.89C-.23,269.87-.37,383.14,59.08,418.54,122.14,456.1,396,504.4,464.75,367Z" style="fill:#92E3A9"></path><path d="M464.75,367c27.74-55.46,29.61-129.36,10.46-188.6-16.49-51-53.18-89.91-95.57-113.08C330.47,38.47,271.86,30.47,219.09,47.44,205.21,51.9,191.7,56,178.61,63.32,125,93.37,135.32,167.41,116.49,193.17c-15.83,21.67-46.12,15.28-65.21,31.89C-.23,269.87-.37,383.14,59.08,418.54,122.14,456.1,396,504.4,464.75,367Z" style="fill:#fff;opacity:0.8"></path></g><g id="freepik--Clouds--inject-77"><path d="M350.14,76.26H250.21a.49.49,0,0,1-.45-.29.51.51,0,0,1,.06-.53l2-2.55c1.4-1.74,3.59-1.06,5.36-.51,1.18.37,2.29.72,3,.38.88-.44,1.6-1.62,2.44-3a17.35,17.35,0,0,1,3.59-4.59c1.86-1.55,4.93.09,8.18,1.83,2.58,1.38,5.25,2.81,6.72,2.18a4.28,4.28,0,0,0,2.33-2.64A7.29,7.29,0,0,1,288.28,62c2.66-1,5.31.19,7.63,1.22,3.19,1.4,5.23,2.13,6.9-.51a28.34,28.34,0,0,0,2.24-4.65c1.81-4.41,3.51-8.57,10.88-9.34,9.49-1,20.94,15.86,22.28,17.89a8.28,8.28,0,0,0,4.11-.23,6,6,0,0,1,5.54.76c4.34,2.72,2.78,8.66,2.77,8.72A.5.5,0,0,1,350.14,76.26Zm-98.89-1h98.49C350,74,350.46,70,347.33,68a5.07,5.07,0,0,0-4.77-.64,9.25,9.25,0,0,1-4.76.2.5.5,0,0,1-.31-.22c-.12-.19-12.18-18.6-21.46-17.62-6.77.71-8.29,4.43-10,8.73a30.27,30.27,0,0,1-2.32,4.81c-2.22,3.49-5.24,2.16-8.15.88-2.26-1-4.6-2-6.89-1.19a6.36,6.36,0,0,0-4.27,4,5.27,5.27,0,0,1-2.84,3.15c-1.92.82-4.68-.66-7.6-2.22s-5.72-3.06-7.06-1.94a16.63,16.63,0,0,0-3.38,4.34c-.92,1.51-1.71,2.81-2.84,3.37s-2.33.12-3.71-.31c-2-.63-3.38-1-4.28.18Z" style="fill:#263238"></path><path d="M114.44,223.57H14.51a.5.5,0,0,1-.45-.28.51.51,0,0,1,.06-.53l2-2.55c1.4-1.75,3.59-1.06,5.36-.52,1.18.37,2.29.72,3,.38.88-.44,1.6-1.62,2.44-3a17.19,17.19,0,0,1,3.59-4.59c1.86-1.56,4.93.09,8.18,1.82,2.58,1.39,5.25,2.81,6.72,2.18a4.25,4.25,0,0,0,2.33-2.64,7.31,7.31,0,0,1,4.84-4.51c2.66-1,5.3.19,7.63,1.22,3.19,1.4,5.23,2.13,6.9-.51a28.76,28.76,0,0,0,2.24-4.65c1.81-4.4,3.51-8.57,10.88-9.34,9.49-1,20.94,15.86,22.28,17.9a8.38,8.38,0,0,0,4.11-.24,6,6,0,0,1,5.54.77c4.34,2.71,2.78,8.65,2.76,8.71A.49.49,0,0,1,114.44,223.57Zm-98.89-1H114c.24-1.24.72-5.28-2.41-7.24a5.07,5.07,0,0,0-4.77-.64,9.14,9.14,0,0,1-4.76.2.5.5,0,0,1-.31-.22c-.12-.18-12.15-18.57-21.46-17.62-6.77.72-8.29,4.43-10,8.73A29.86,29.86,0,0,1,68,210.59c-2.23,3.49-5.24,2.17-8.15.88-2.26-1-4.6-2-6.89-1.19a6.36,6.36,0,0,0-4.27,4,5.27,5.27,0,0,1-2.84,3.15c-1.92.82-4.68-.65-7.6-2.21s-5.72-3.07-7.06-1.94a16.47,16.47,0,0,0-3.38,4.34c-.92,1.5-1.71,2.8-2.84,3.37s-2.33.11-3.71-.32c-2-.62-3.38-1-4.28.18Z" style="fill:#263238"></path><path d="M469.7,99.1H310.41a.5.5,0,0,1-.45-.28.49.49,0,0,1,.06-.53l3.25-4.07c2.1-2.62,5.35-1.61,8.22-.72,1.94.61,3.77,1.18,4.95.59,1.47-.74,2.64-2.66,4-4.89A27.83,27.83,0,0,1,336.09,82c2.82-2.35,7.63.22,12.71,2.94,4.18,2.24,8.5,4.55,11,3.49,2.32-1,3-2.56,3.85-4.36,1.1-2.41,2.34-5.14,7.55-7,4.14-1.51,8.29.32,11.95,1.93,4.7,2.07,8.42,3.71,11.37-.92a46.38,46.38,0,0,0,3.59-7.46c2.84-6.94,5.53-13.49,17.09-14.71,15.13-1.6,33.53,25.79,35.31,28.5a13.43,13.43,0,0,0,6.8-.35c2.45-.63,4.77-1.21,8.6,1.18,6.74,4.21,4.3,13.47,4.28,13.56A.5.5,0,0,1,469.7,99.1Zm-158.25-1H469.3c.35-1.69,1.45-8.72-3.93-12.08-3.47-2.17-5.39-1.68-7.82-1.06a14.47,14.47,0,0,1-7.47.31.53.53,0,0,1-.31-.22c-.19-.29-19.52-29.76-34.47-28.21C404.33,58,401.87,64,399,70.93a47.13,47.13,0,0,1-3.68,7.62c-3.4,5.35-8.09,3.29-12.62,1.29-3.65-1.61-7.43-3.27-11.2-1.9-4.81,1.75-5.91,4.16-7,6.5-.87,1.91-1.69,3.72-4.37,4.87-2.93,1.25-7.26-1.07-11.85-3.52s-9.3-5-11.59-3.06a26.57,26.57,0,0,0-5.45,7c-1.43,2.36-2.67,4.4-4.4,5.26-1.55.77-3.56.14-5.7-.52-2.68-.84-5.47-1.71-7.14.39Z" style="fill:#263238"></path></g><g id="freepik--Floor--inject-77"><path d="M469.49,440.54H21.35a.5.5,0,0,1-.5-.5.51.51,0,0,1,.5-.5H469.49a.5.5,0,0,1,.5.5A.5.5,0,0,1,469.49,440.54Z" style="fill:#263238"></path></g><g id="freepik--Plants--inject-77"><path d="M440.88,401.92c-1.53.46-5.09-.07-5.09-.07s1.06-2.23,1.14-2.37c1-1.53,3.8-3.92,5.78-3.4a2.43,2.43,0,0,1,1.55,3.25A5,5,0,0,1,440.88,401.92Z" style="fill:#263238"></path><path d="M407.72,400.44s-.35-2.45-.35-2.61c0-1.82,1-5.37,2.93-6a2.42,2.42,0,0,1,3.09,1.85,5.09,5.09,0,0,1-1.38,4C411,398.92,407.72,400.44,407.72,400.44Z" style="fill:#263238"></path><path d="M400.12,393.85a14,14,0,0,0,4.23.91c.31.43.64.9,1,1.42.61.91,1.3,2,2,3.14l.54,1c-.42-.49-1-1.17-1.07-1.23-1.18-1.08-4.1-2.49-5.66-1.61a2.13,2.13,0,0,0-.6,3.11A4.44,4.44,0,0,0,404,402a14.25,14.25,0,0,0,4.2-1.15c.38.74.77,1.52,1.12,2.34a28.58,28.58,0,0,1,1.55,4.63l-.09,0c-.33-.5-1.06-1.55-1.12-1.63-1.06-1.21-3.8-2.93-5.46-2.22a2.12,2.12,0,0,0-.93,3,4.45,4.45,0,0,0,3.26,1.83,14.93,14.93,0,0,0,4.4-.71,37.13,37.13,0,0,1,.69,4.81c.1,1.2.15,2.41.19,3.63-.22-.36-1.16-1.73-1.24-1.82-1.06-1.21-3.8-2.93-5.46-2.23a2.13,2.13,0,0,0-.93,3,4.44,4.44,0,0,0,3.26,1.82,14.92,14.92,0,0,0,4.38-.69c0,.55,0,1.1,0,1.66,0,1.81.08,3.63.17,5.42,0,.63.09,1.24.14,1.85-.35-.53-1-1.49-1.07-1.56-1.06-1.21-3.8-2.93-5.46-2.23a2.13,2.13,0,0,0-.93,3,4.44,4.44,0,0,0,3.26,1.82,13.93,13.93,0,0,0,4.23-.65c.1,1,.21,2,.37,3,.08.42.13.86.23,1.27l.27,1.21c.21.82.41,1.58.63,2.34.1.39.21.75.32,1.12-.27-.59-.72-1.52-.78-1.6-.85-1.36-3.31-3.48-5.05-3a2.13,2.13,0,0,0-1.38,2.85,4.45,4.45,0,0,0,2.95,2.3,14.58,14.58,0,0,0,4.41,0c.27.91.54,1.8.81,2.62s.44,1.3.65,1.9h1.18c-.26-.7-.54-1.45-.82-2.24s-.52-1.53-.79-2.34a15.47,15.47,0,0,0,3.74-2,24.83,24.83,0,0,0,2.37,1.33c-.27.91-.53,1.79-.76,2.63s-.49,1.83-.7,2.66H421c.17-.75.36-1.54.57-2.39s.4-1.56.63-2.38a14.73,14.73,0,0,0,4.39.33,4.48,4.48,0,0,0,3.11-2.09,2.13,2.13,0,0,0-1.19-2.94c-1.7-.57-4.3,1.38-5.25,2.67-.06.08-.67,1.14-1,1.69.13-.5.27-1,.42-1.5.22-.74.47-1.52.71-2.27l.42-1.17c.13-.4.31-.76.46-1.15.24-.57.52-1.14.79-1.71a13.85,13.85,0,0,0,4.09.92,4.44,4.44,0,0,0,3.38-1.6,2.12,2.12,0,0,0-.72-3.08c-1.6-.82-4.46.71-5.59,1.84,0,0-.26.3-.51.62.29-.55.57-1.1.88-1.65.87-1.55,1.8-3.1,2.73-4.66l.58-1a14.49,14.49,0,0,0,4.19,1,4.45,4.45,0,0,0,3.39-1.6,2.13,2.13,0,0,0-.72-3.08c-1.6-.82-4.46.71-5.6,1.84l-.58.71c.49-.85,1-1.71,1.43-2.58a37.73,37.73,0,0,0,2-4.58,15.17,15.17,0,0,0,4.32,1,4.44,4.44,0,0,0,3.38-1.6,2.12,2.12,0,0,0-.72-3.08c-1.6-.82-4.46.71-5.6,1.84-.08.08-1,1.23-1.31,1.66a.14.14,0,0,0,0-.06,27.58,27.58,0,0,0,1.17-4.79,37.89,37.89,0,0,0,.42-4.39c.07-1.36,0-2.61,0-3.72,0-.6,0-1.15-.08-1.66l0,0s.78-2,.81-2.17c.38-1.56.19-4.79-1.34-5.73a2.13,2.13,0,0,0-3,1,4.44,4.44,0,0,0,.4,3.72,14.45,14.45,0,0,0,3,3.1c0,.53,0,1.09.05,1.72,0,1.11,0,2.35-.1,3.71,0,.36-.06.75-.09,1.13-.08-.65-.2-1.53-.22-1.62-.38-1.56-2-4.34-3.83-4.47a2.14,2.14,0,0,0-2.22,2.26,4.45,4.45,0,0,0,2.08,3.12,14.38,14.38,0,0,0,4.13,1.36c-.09.83-.2,1.69-.36,2.57a26.9,26.9,0,0,1-1.26,4.72l-.1,0c0-.6,0-1.87,0-2-.21-1.59-1.56-4.54-3.32-4.86a2.13,2.13,0,0,0-2.45,2,4.47,4.47,0,0,0,1.71,3.32,15,15,0,0,0,4.06,1.84,38,38,0,0,1-2.08,4.39c-.57,1.05-1.2,2.1-1.84,3.14,0-.43,0-2.09,0-2.21-.21-1.6-1.55-4.55-3.32-4.87a2.13,2.13,0,0,0-2.45,2,4.43,4.43,0,0,0,1.72,3.32,14.42,14.42,0,0,0,4,1.83c-.29.48-.58,1-.88,1.42-1,1.54-1.93,3.07-2.84,4.62-.32.54-.61,1.08-.91,1.62,0-.64,0-1.8,0-1.9-.21-1.59-1.55-4.54-3.32-4.86a2.12,2.12,0,0,0-2.45,2A4.45,4.45,0,0,0,421,424a13.92,13.92,0,0,0,3.88,1.78c-.48.9-.94,1.81-1.35,2.72-.17.4-.37.79-.51,1.18s-.29.78-.44,1.16c-.28.8-.54,1.55-.77,2.3-.12.38-.23.74-.35,1.11.1-.64.24-1.67.24-1.76,0-1.61-.85-4.73-2.55-5.31a2.12,2.12,0,0,0-2.72,1.61,1.84,1.84,0,0,0-.06.47,8.23,8.23,0,0,0-1.4,3.92c0,.11.07,1.33.13,1.95-.16-.49-.32-1-.47-1.49-.23-.74-.45-1.52-.67-2.28-.09-.4-.19-.8-.29-1.21s-.16-.81-.25-1.22c-.11-.6-.2-1.23-.28-1.86a13.64,13.64,0,0,0,3.91-1.49,4.43,4.43,0,0,0,1.94-3.19,2.11,2.11,0,0,0-2.3-2.17c-1.79.19-3.33,3-3.65,4.62,0,.05,0,.39-.08.79-.07-.61-.13-1.23-.18-1.85-.13-1.78-.21-3.59-.29-5.4l-.06-1.14a14.11,14.11,0,0,0,4-1.51,4.47,4.47,0,0,0,1.94-3.2,2.12,2.12,0,0,0-2.3-2.17c-1.79.2-3.33,3.05-3.65,4.62,0,0-.05.46-.09.91-.06-1-.13-2-.24-2.93a37.46,37.46,0,0,0-.82-5,14.69,14.69,0,0,0,4.15-1.55,4.45,4.45,0,0,0,1.94-3.19,2.13,2.13,0,0,0-2.3-2.18c-1.79.2-3.33,3.05-3.65,4.63,0,.11-.15,1.58-.18,2.1a.13.13,0,0,1,0-.06,27.92,27.92,0,0,0-1.68-4.64,37,37,0,0,0-2.07-3.89c-.69-1.17-1.4-2.2-2-3.11-.35-.49-.67-.93-1-1.34h0s-.47-2.13-.52-2.26c-.55-1.51-2.49-4.1-4.28-4a2.13,2.13,0,0,0-2,2.49A4.46,4.46,0,0,0,400.12,393.85Z" style="fill:#263238"></path><path d="M66.28,411.34a12.78,12.78,0,0,1-3.83,0s.79-1.68.86-1.78c.74-1.16,2.85-3,4.34-2.57a1.83,1.83,0,0,1,1.17,2.45A3.8,3.8,0,0,1,66.28,411.34Z" style="fill:#263238"></path><path d="M41.31,410.23s-.26-1.85-.26-2c0-1.37.75-4,2.21-4.53a1.81,1.81,0,0,1,2.32,1.4,3.82,3.82,0,0,1-1,3A13.37,13.37,0,0,1,41.31,410.23Z" style="fill:#263238"></path><path d="M35.59,405.26a10.39,10.39,0,0,0,3.19.69l.75,1.07c.46.69,1,1.47,1.48,2.36l.4.75c-.31-.37-.75-.88-.8-.92-.89-.82-3.09-1.88-4.27-1.22a1.61,1.61,0,0,0-.45,2.34,3.38,3.38,0,0,0,2.6,1.1,10.93,10.93,0,0,0,3.16-.86c.29.56.58,1.14.84,1.76a19.85,19.85,0,0,1,1.17,3.49l-.07,0c-.25-.38-.79-1.17-.84-1.23-.79-.91-2.86-2.21-4.11-1.68a1.61,1.61,0,0,0-.7,2.28,3.33,3.33,0,0,0,2.46,1.38,11.27,11.27,0,0,0,3.31-.54,28.07,28.07,0,0,1,.52,3.63c.07.9.11,1.81.14,2.73-.17-.27-.88-1.31-.94-1.38-.79-.91-2.86-2.2-4.1-1.67a1.61,1.61,0,0,0-.71,2.28A3.39,3.39,0,0,0,41.08,423a11.43,11.43,0,0,0,3.3-.52l0,1.25c0,1.36.07,2.73.14,4.08,0,.47.06.93.1,1.39-.26-.4-.76-1.12-.81-1.17-.79-.92-2.86-2.21-4.1-1.68a1.61,1.61,0,0,0-.71,2.28A3.37,3.37,0,0,0,41.49,430a10.52,10.52,0,0,0,3.18-.49c.07.77.16,1.52.28,2.27.06.32.1.65.17.95l.21.91c.16.62.3,1.2.47,1.77l.24.84c-.2-.45-.54-1.15-.58-1.21-.65-1-2.5-2.61-3.81-2.28a1.61,1.61,0,0,0-1,2.15,3.36,3.36,0,0,0,2.22,1.73,10.79,10.79,0,0,0,3.32,0c.21.69.41,1.35.62,2s.32,1,.48,1.43h.89c-.2-.53-.4-1.09-.61-1.69s-.4-1.15-.6-1.75a12,12,0,0,0,2.82-1.55,20.15,20.15,0,0,0,1.78,1c-.21.68-.4,1.35-.57,2s-.37,1.38-.53,2h.87c.13-.57.27-1.16.43-1.8s.31-1.17.48-1.79a11.1,11.1,0,0,0,3.3.25,3.36,3.36,0,0,0,2.34-1.58,1.6,1.6,0,0,0-.89-2.21c-1.28-.43-3.24,1-4,2,0,.06-.51.86-.73,1.27.1-.37.21-.74.32-1.13.16-.55.35-1.14.53-1.71l.32-.87c.1-.31.23-.58.35-.87s.39-.86.59-1.29a10.36,10.36,0,0,0,3.08.69,3.34,3.34,0,0,0,2.55-1.2,1.61,1.61,0,0,0-.55-2.32c-1.2-.62-3.35.53-4.21,1.39,0,0-.19.22-.38.46.22-.41.43-.83.66-1.24.65-1.17,1.36-2.33,2.06-3.51l.43-.74a10.54,10.54,0,0,0,3.16.72,3.31,3.31,0,0,0,2.55-1.2,1.61,1.61,0,0,0-.54-2.32c-1.21-.61-3.36.53-4.22,1.39l-.43.54c.37-.65.73-1.29,1.07-2a27.61,27.61,0,0,0,1.54-3.45,10.94,10.94,0,0,0,3.25.75,3.34,3.34,0,0,0,2.55-1.2,1.61,1.61,0,0,0-.55-2.32c-1.2-.62-3.35.53-4.21,1.39-.06.06-.75.93-1,1.24,0,0,0,0,0,0a21,21,0,0,0,.88-3.6,27,27,0,0,0,.31-3.31c0-1,0-2,0-2.8,0-.45,0-.86-.06-1.25l0,0s.59-1.53.61-1.63c.29-1.17.15-3.61-1-4.32a1.6,1.6,0,0,0-2.26.75,3.37,3.37,0,0,0,.3,2.8,10.54,10.54,0,0,0,2.28,2.33c0,.4,0,.83,0,1.3,0,.83,0,1.77-.07,2.79,0,.28-.05.57-.08.85-.06-.49-.14-1.15-.16-1.22-.29-1.17-1.54-3.27-2.89-3.36a1.6,1.6,0,0,0-1.66,1.7,3.33,3.33,0,0,0,1.56,2.35,10.82,10.82,0,0,0,3.11,1c-.07.63-.15,1.27-.27,1.94a20.36,20.36,0,0,1-1,3.55h-.07c0-.46,0-1.41,0-1.49-.16-1.2-1.17-3.42-2.5-3.66a1.59,1.59,0,0,0-1.84,1.51,3.31,3.31,0,0,0,1.29,2.5,11.63,11.63,0,0,0,3.05,1.39,28.14,28.14,0,0,1-1.56,3.3c-.43.79-.91,1.58-1.39,2.36,0-.32,0-1.57,0-1.66-.16-1.2-1.17-3.42-2.5-3.66a1.6,1.6,0,0,0-1.85,1.51,3.36,3.36,0,0,0,1.3,2.5,11.3,11.3,0,0,0,3,1.38c-.22.35-.43.71-.66,1.06-.72,1.16-1.45,2.32-2.14,3.48-.24.41-.46.81-.68,1.22,0-.48,0-1.35,0-1.43-.15-1.2-1.16-3.42-2.5-3.66A1.6,1.6,0,0,0,50,425.46a3.38,3.38,0,0,0,1.29,2.5,10.4,10.4,0,0,0,2.93,1.35c-.36.68-.71,1.36-1,2-.13.3-.28.6-.38.89s-.22.59-.34.88c-.2.6-.4,1.16-.58,1.73-.09.28-.17.55-.25.83.07-.48.17-1.25.17-1.32,0-1.21-.63-3.56-1.91-4a1.59,1.59,0,0,0-2,1.21,1.41,1.41,0,0,0,0,.35,6.29,6.29,0,0,0-1.05,3c0,.08.05,1,.09,1.46-.12-.37-.23-.73-.35-1.12-.17-.55-.34-1.14-.5-1.72-.07-.3-.15-.6-.22-.9s-.13-.61-.19-.92-.15-.93-.21-1.4a10.28,10.28,0,0,0,2.94-1.12,3.32,3.32,0,0,0,1.46-2.41,1.59,1.59,0,0,0-1.73-1.63c-1.34.14-2.51,2.29-2.75,3.47,0,0,0,.3-.06.6-.05-.46-.1-.92-.13-1.39-.1-1.34-.16-2.7-.22-4.07,0-.28,0-.57,0-.85a11,11,0,0,0,3-1.14,3.39,3.39,0,0,0,1.46-2.41,1.61,1.61,0,0,0-1.73-1.64c-1.35.15-2.51,2.3-2.75,3.48,0,0,0,.35-.07.69,0-.74-.1-1.48-.18-2.21a27.91,27.91,0,0,0-.62-3.73,11,11,0,0,0,3.13-1.17,3.35,3.35,0,0,0,1.46-2.4,1.6,1.6,0,0,0-1.73-1.64c-1.35.15-2.51,2.3-2.75,3.48,0,.09-.12,1.19-.14,1.59a.09.09,0,0,0,0,0,20.25,20.25,0,0,0-1.26-3.49,28.41,28.41,0,0,0-1.55-2.93c-.53-.88-1.06-1.66-1.54-2.34-.26-.37-.51-.7-.74-1h0s-.36-1.59-.39-1.69c-.41-1.14-1.88-3.09-3.23-3a1.62,1.62,0,0,0-1.48,1.87A3.33,3.33,0,0,0,35.59,405.26Z" style="fill:#263238"></path><path d="M280.18,422.08a8.19,8.19,0,0,1-2.39,0s.49-1.05.53-1.11c.47-.73,1.79-1.85,2.72-1.61a1.14,1.14,0,0,1,.74,1.53A2.39,2.39,0,0,1,280.18,422.08Z" style="fill:#263238"></path><path d="M264.56,421.38s-.17-1.16-.17-1.23c0-.86.47-2.53,1.38-2.84a1.15,1.15,0,0,1,1.46.87,2.4,2.4,0,0,1-.65,1.9A8.25,8.25,0,0,1,264.56,421.38Z" style="fill:#263238"></path><path d="M261,418.27a6.62,6.62,0,0,0,2,.43l.47.67c.29.43.61.92.92,1.48.09.15.17.31.26.47-.2-.24-.48-.55-.51-.58-.55-.51-1.93-1.18-2.66-.76a1,1,0,0,0-.29,1.46,2.11,2.11,0,0,0,1.63.69,6.8,6.8,0,0,0,2-.54c.18.35.36.71.52,1.1a13.1,13.1,0,0,1,.74,2.19l0,0c-.15-.24-.49-.74-.53-.77-.49-.57-1.79-1.38-2.57-1.05a1,1,0,0,0-.44,1.42,2.08,2.08,0,0,0,1.54.86,6.63,6.63,0,0,0,2.07-.33,16.54,16.54,0,0,1,.33,2.27c.05.56.07,1.14.09,1.71-.1-.17-.55-.82-.59-.86-.49-.57-1.79-1.38-2.57-1a1,1,0,0,0-.44,1.43,2.11,2.11,0,0,0,1.54.86,7,7,0,0,0,2.06-.33l0,.78c0,.86,0,1.71.08,2.56,0,.29,0,.58.06.87-.16-.25-.47-.7-.5-.74-.5-.57-1.79-1.38-2.57-1a1,1,0,0,0-.44,1.43,2.11,2.11,0,0,0,1.54.86,6.54,6.54,0,0,0,2-.31c0,.48.1,1,.17,1.42,0,.2.06.41.11.6s.09.38.13.57c.1.39.19.75.29,1.1.05.18.11.35.16.53-.13-.28-.35-.72-.37-.76-.4-.63-1.56-1.63-2.38-1.42a1,1,0,0,0-.65,1.34,2.07,2.07,0,0,0,1.39,1.08,6.69,6.69,0,0,0,2.08,0c.12.43.25.85.38,1.23s.2.62.3.9h.56l-.39-1.06c-.12-.34-.24-.71-.37-1.1a6.93,6.93,0,0,0,1.77-1c.47.31,1,.58,1.11.63-.13.42-.25.84-.36,1.24s-.23.86-.33,1.25h.55c.08-.35.17-.73.27-1.13l.29-1.12a6.69,6.69,0,0,0,2.08.16,2.11,2.11,0,0,0,1.46-1,1,1,0,0,0-.56-1.38c-.8-.27-2,.65-2.47,1.26,0,0-.32.53-.46.79.07-.23.13-.46.2-.71s.22-.71.33-1.06c.07-.19.14-.37.2-.55s.15-.37.22-.55.24-.53.37-.8a6.54,6.54,0,0,0,1.93.43,2.08,2.08,0,0,0,1.59-.75,1,1,0,0,0-.34-1.46c-.75-.38-2.1.34-2.63.87l-.24.29c.13-.26.27-.51.41-.77.41-.73.85-1.47,1.29-2.2l.27-.46a7,7,0,0,0,2,.45,2.08,2.08,0,0,0,1.59-.75,1,1,0,0,0-.34-1.45c-.75-.39-2.1.33-2.63.86l-.28.34c.24-.4.46-.81.68-1.22a17.16,17.16,0,0,0,1-2.16,6.8,6.8,0,0,0,2,.47,2.1,2.1,0,0,0,1.6-.75,1,1,0,0,0-.34-1.45c-.76-.39-2.1.33-2.64.87,0,0-.47.58-.62.78v0a13,13,0,0,0,.55-2.26,17.6,17.6,0,0,0,.2-2.07c0-.64,0-1.23,0-1.75,0-.28,0-.54,0-.78h0s.37-1,.38-1c.18-.74.09-2.26-.63-2.7a1,1,0,0,0-1.42.46,2.18,2.18,0,0,0,.19,1.76A7.1,7.1,0,0,0,277.7,419c0,.25,0,.52,0,.81,0,.52,0,1.11,0,1.75,0,.17,0,.35-.05.53,0-.31-.09-.72-.1-.76-.18-.74-1-2.05-1.81-2.11a1,1,0,0,0-1,1.07,2.11,2.11,0,0,0,1,1.47,6.65,6.65,0,0,0,1.95.64c-.05.39-.1.79-.17,1.21a12.65,12.65,0,0,1-.6,2.22h0c0-.29,0-.89,0-.94-.1-.75-.73-2.14-1.57-2.29a1,1,0,0,0-1.15.95,2.08,2.08,0,0,0,.81,1.56,7.08,7.08,0,0,0,1.91.87,17.6,17.6,0,0,1-1,2.07c-.27.5-.56,1-.87,1.48,0-.2,0-1,0-1.05-.1-.75-.73-2.14-1.57-2.29a1,1,0,0,0-1.15.95,2.08,2.08,0,0,0,.81,1.56,6.93,6.93,0,0,0,1.9.87l-.41.66c-.46.73-.91,1.45-1.34,2.18l-.43.76c0-.3,0-.84,0-.89-.1-.75-.73-2.14-1.56-2.29a1,1,0,0,0-1.16.94,2.12,2.12,0,0,0,.81,1.57,6.52,6.52,0,0,0,1.84.84c-.23.43-.45.85-.64,1.28-.08.19-.18.38-.24.56l-.21.55c-.13.37-.25.72-.36,1.08-.06.18-.11.35-.17.52.05-.3.11-.78.11-.83,0-.75-.39-2.22-1.19-2.5a1,1,0,0,0-1.29.76.78.78,0,0,0,0,.22,4,4,0,0,0-.66,1.85c0,.05,0,.62.06.92-.07-.23-.15-.46-.22-.71s-.21-.71-.31-1.07c-.05-.19-.09-.38-.14-.57s-.08-.38-.12-.57-.09-.58-.13-.88a6.49,6.49,0,0,0,1.84-.7,2.12,2.12,0,0,0,.92-1.51,1,1,0,0,0-1.09-1c-.84.09-1.57,1.43-1.72,2.18,0,0,0,.18,0,.37,0-.29-.07-.58-.09-.87-.06-.84-.1-1.69-.14-2.55,0-.18,0-.35,0-.53a6.84,6.84,0,0,0,1.89-.72,2.07,2.07,0,0,0,.92-1.5,1,1,0,0,0-1.09-1c-.84.1-1.56,1.44-1.72,2.18,0,0,0,.22,0,.43,0-.46-.06-.93-.11-1.38a17.57,17.57,0,0,0-.39-2.34,6.85,6.85,0,0,0,2-.73,2.06,2.06,0,0,0,.91-1.5,1,1,0,0,0-1.08-1c-.84.1-1.57,1.44-1.72,2.18,0,.05-.07.74-.09,1v0a13.65,13.65,0,0,0-.79-2.18,17.47,17.47,0,0,0-1-1.84c-.32-.55-.66-1-1-1.46-.16-.23-.32-.44-.46-.63h0s-.23-1-.25-1.06c-.25-.71-1.17-1.94-2-1.91a1,1,0,0,0-.92,1.17A2.09,2.09,0,0,0,261,418.27Z" style="fill:#263238"></path><path d="M314,411.68a12.88,12.88,0,0,1-3.79-.05s.79-1.67.85-1.77c.73-1.14,2.82-2.92,4.3-2.53a1.8,1.8,0,0,1,1.15,2.42A3.77,3.77,0,0,1,314,411.68Z" style="fill:#263238"></path><path d="M289.36,410.58s-.27-1.83-.27-1.94c0-1.36.75-4,2.19-4.49a1.8,1.8,0,0,1,2.29,1.39,3.74,3.74,0,0,1-1,3A13.23,13.23,0,0,1,289.36,410.58Z" style="fill:#263238"></path><path d="M283.7,405.67a10.42,10.42,0,0,0,3.15.68c.23.32.48.67.74,1,.46.69,1,1.46,1.46,2.34.14.24.27.5.4.74-.31-.37-.74-.87-.79-.91-.88-.81-3.05-1.86-4.22-1.2a1.59,1.59,0,0,0-.44,2.31,3.27,3.27,0,0,0,2.56,1.08,10.42,10.42,0,0,0,3.13-.85c.29.56.57,1.13.83,1.74a20.85,20.85,0,0,1,1.16,3.45l-.07,0c-.25-.38-.79-1.15-.84-1.21-.78-.9-2.82-2.18-4-1.66a1.58,1.58,0,0,0-.7,2.25,3.32,3.32,0,0,0,2.43,1.36,11.16,11.16,0,0,0,3.27-.52,27.39,27.39,0,0,1,.52,3.57c.07.89.11,1.8.14,2.71-.17-.27-.87-1.29-.93-1.36-.78-.9-2.83-2.18-4.06-1.66a1.58,1.58,0,0,0-.69,2.25,3.28,3.28,0,0,0,2.43,1.36,11.09,11.09,0,0,0,3.25-.52c0,.41,0,.83,0,1.24,0,1.35.06,2.7.13,4,0,.46.06.91.1,1.37-.26-.4-.75-1.11-.8-1.16-.78-.9-2.82-2.18-4.05-1.66a1.58,1.58,0,0,0-.7,2.25,3.32,3.32,0,0,0,2.43,1.36,10.36,10.36,0,0,0,3.15-.49c.06.76.15,1.51.27,2.24.06.32.1.65.17.94s.14.61.2.91c.16.61.3,1.18.47,1.74.08.29.16.55.24.83-.21-.44-.54-1.13-.58-1.19-.64-1-2.46-2.58-3.76-2.25a1.59,1.59,0,0,0-1,2.12,3.35,3.35,0,0,0,2.2,1.71,10.86,10.86,0,0,0,3.28,0q.3,1,.6,1.95l.48,1.41h.88c-.19-.52-.4-1.08-.61-1.67s-.39-1.13-.58-1.73a12.07,12.07,0,0,0,2.78-1.53,15.62,15.62,0,0,0,1.76,1c-.2.68-.4,1.34-.56,2s-.37,1.37-.52,2h.86c.12-.56.26-1.15.42-1.78s.3-1.16.47-1.77a11.25,11.25,0,0,0,3.27.25,3.33,3.33,0,0,0,2.31-1.56,1.58,1.58,0,0,0-.88-2.18c-1.27-.43-3.2,1-3.91,2,0,.06-.5.85-.72,1.26.11-.37.21-.74.32-1.12.16-.55.35-1.13.53-1.69l.31-.87c.1-.29.23-.57.34-.86s.39-.84.59-1.27a10.08,10.08,0,0,0,3,.69,3.34,3.34,0,0,0,2.52-1.19,1.58,1.58,0,0,0-.54-2.29c-1.19-.61-3.32.52-4.16,1.37,0,0-.19.22-.38.46l.65-1.23c.65-1.15,1.35-2.31,2-3.47l.43-.73a10.56,10.56,0,0,0,3.12.72,3.34,3.34,0,0,0,2.52-1.19,1.58,1.58,0,0,0-.54-2.29c-1.19-.61-3.32.52-4.16,1.37,0,0-.22.26-.43.53.36-.64.72-1.28,1.06-1.92a28.59,28.59,0,0,0,1.52-3.42,11.1,11.1,0,0,0,3.21.75,3.35,3.35,0,0,0,2.52-1.19,1.58,1.58,0,0,0-.54-2.29c-1.19-.61-3.32.52-4.16,1.37-.06.06-.74.91-1,1.23,0,0,0,0,0,0a20.31,20.31,0,0,0,.86-3.57,28.45,28.45,0,0,0,.32-3.26c0-1,0-1.95,0-2.77,0-.45,0-.85-.06-1.23h0s.58-1.51.6-1.61c.28-1.16.14-3.56-1-4.26a1.57,1.57,0,0,0-2.23.73,3.34,3.34,0,0,0,.29,2.77,11,11,0,0,0,2.25,2.31c0,.39,0,.81,0,1.28,0,.82,0,1.75-.07,2.76,0,.27-.05.56-.07.84-.06-.48-.14-1.14-.16-1.2-.29-1.16-1.52-3.24-2.85-3.33a1.58,1.58,0,0,0-1.65,1.68,3.28,3.28,0,0,0,1.54,2.32,10.89,10.89,0,0,0,3.08,1c-.07.61-.15,1.25-.27,1.91a20.14,20.14,0,0,1-.94,3.51h-.07c0-.45,0-1.4,0-1.48-.15-1.18-1.15-3.38-2.47-3.62a1.59,1.59,0,0,0-1.82,1.5,3.31,3.31,0,0,0,1.28,2.47,11.37,11.37,0,0,0,3,1.37,29.35,29.35,0,0,1-1.55,3.27c-.43.78-.9,1.56-1.37,2.33,0-.32,0-1.56,0-1.65-.15-1.18-1.15-3.38-2.47-3.62a1.6,1.6,0,0,0-1.82,1.5,3.31,3.31,0,0,0,1.28,2.47,10.7,10.7,0,0,0,3,1.36l-.65,1.06c-.72,1.14-1.44,2.28-2.12,3.44-.23.39-.45.8-.67,1.2,0-.48,0-1.34,0-1.41-.15-1.19-1.15-3.38-2.47-3.62a1.58,1.58,0,0,0-1.82,1.49,3.31,3.31,0,0,0,1.28,2.47,10.11,10.11,0,0,0,2.89,1.33c-.36.67-.7,1.35-1,2-.12.3-.27.59-.37.88s-.23.58-.33.87c-.21.59-.4,1.15-.58,1.71-.09.28-.17.55-.25.82.07-.48.17-1.24.17-1.31,0-1.19-.63-3.51-1.89-3.95a1.59,1.59,0,0,0-2,1.2,2,2,0,0,0-.05.35,6.18,6.18,0,0,0-1,2.92c0,.08.05,1,.09,1.45-.12-.37-.24-.73-.35-1.11-.17-.55-.33-1.13-.49-1.7-.08-.29-.15-.59-.22-.9s-.13-.6-.19-.9-.15-.92-.21-1.39a10.22,10.22,0,0,0,2.91-1.1,3.32,3.32,0,0,0,1.45-2.38,1.59,1.59,0,0,0-1.72-1.62c-1.33.15-2.47,2.27-2.71,3.44,0,0,0,.29-.06.59-.05-.46-.1-.91-.13-1.38-.1-1.32-.16-2.67-.22-4,0-.28,0-.56-.05-.84a10.76,10.76,0,0,0,3-1.13,3.28,3.28,0,0,0,1.45-2.38,1.58,1.58,0,0,0-1.72-1.61c-1.33.14-2.47,2.26-2.71,3.43,0,.05,0,.35-.07.68,0-.73-.1-1.46-.17-2.18a27.31,27.31,0,0,0-.62-3.69,10.89,10.89,0,0,0,3.09-1.15,3.31,3.31,0,0,0,1.45-2.38,1.58,1.58,0,0,0-1.72-1.61c-1.33.14-2.48,2.27-2.71,3.44,0,.08-.12,1.17-.14,1.56a.06.06,0,0,0,0,0,20.32,20.32,0,0,0-1.24-3.45,27.82,27.82,0,0,0-1.54-2.9c-.52-.87-1.05-1.64-1.52-2.32-.26-.36-.5-.69-.73-1h0s-.35-1.58-.39-1.67c-.4-1.13-1.85-3.06-3.19-3a1.59,1.59,0,0,0-1.46,1.85A3.31,3.31,0,0,0,283.7,405.67Z" style="fill:#263238"></path></g><g id="freepik--Dog--inject-77"><path d="M370.75,138.85S371,127,373.22,130s2.47,8.89,3.7,12.59a66.54,66.54,0,0,1,2.23,11.36,7.45,7.45,0,0,1-.74,2.22L371,151.19Z" style="fill:#92E3A9"></path><path d="M378.41,156.63a.54.54,0,0,1-.28-.08l-7.41-4.94a.5.5,0,0,1-.22-.41l-.25-12.34v0c.06-2.77.37-9.28,2-9.81.33-.1.82-.07,1.35.63,1.5,2,2.12,5.16,2.72,8.21a38.08,38.08,0,0,0,1.06,4.53,67.14,67.14,0,0,1,2.25,11.51,7.53,7.53,0,0,1-.8,2.44.47.47,0,0,1-.32.26Zm-6.91-5.71,6.7,4.47a5.1,5.1,0,0,0,.45-1.48,67.85,67.85,0,0,0-2.2-11.2,38.51,38.51,0,0,1-1.1-4.65c-.57-2.94-1.17-6-2.53-7.8-.18-.24-.28-.27-.28-.27-.58.3-1.19,4.36-1.29,8.86Z" style="fill:#263238"></path><path d="M175.42,356.41s7.45,11.78,4.65,23.26-18.65,24.74-18.21,30.71c.65,8.74,11.08,11.07,11.08,11.07s19.54,11.08,22,13.56a13.45,13.45,0,0,0,6.82,4c1.86.31,19.23.93,20.47.62s2.79-5.58,1.24-6.51-11.47-3.1-16.44-3.41-14.26-4-18.29-7.76-4.34-12.75-2.17-16.78,16.12-17.78,23.88-21.5,17.05-14.58,18.29-27.91,2.17-17.68,2.17-17.68-22.32-2.17-36.28,5.58S175.42,356.41,175.42,356.41Z" style="fill:#92E3A9"></path><path d="M219.9,440.24c-5.2,0-16.66-.45-18.2-.71a14.1,14.1,0,0,1-7.09-4.17c-2.34-2.34-20.65-12.75-21.86-13.44-1-.24-10.74-2.9-11.38-11.5-.23-3,3.31-7.6,7.4-12.88,4.4-5.67,9.38-12.09,10.82-18,2.71-11.13-4.52-22.76-4.59-22.88a.5.5,0,0,1,.08-.63c.22-.2,5.48-5.09,19.33-12.79s36.35-5.66,36.57-5.64a.54.54,0,0,1,.36.21.49.49,0,0,1,.08.39c0,.05-.94,4.49-2.16,17.62s-10.49,24.43-18.58,28.32c-7.66,3.68-21.56,17.4-23.65,21.29-2,3.67-1.84,12.57,2.07,16.18,4.06,3.75,13.29,7.32,18,7.62,5.11.32,15,2.49,16.66,3.48.76.46,1.05,1.61.81,3.24s-1.07,3.9-2.19,4.18A16.41,16.41,0,0,1,219.9,440.24ZM176.07,356.5c1.25,2.12,7.06,12.73,4.49,23.28-1.48,6.11-6.54,12.62-11,18.37-3.8,4.9-7.39,9.54-7.2,12.19.62,8.27,10.59,10.6,10.69,10.62a.52.52,0,0,1,.13.06c.8.45,19.63,11.13,22.13,13.63a13.19,13.19,0,0,0,6.55,3.9c2.18.36,19.22.88,20.27.62.34-.08,1.17-1.53,1.44-3.36.17-1.13,0-2-.34-2.23-1.35-.82-11.1-3-16.21-3.35-4.86-.3-14.39-4-18.6-7.88S184,409,186.15,405s16.12-17.88,24.1-21.71,16.82-14.69,18-27.51c1-10.77,1.8-15.64,2.08-17.18-3.51-.26-23-1.35-35.45,5.57C183,350.75,177.37,355.37,176.07,356.5Z" style="fill:#263238"></path><path d="M230.93,338.11s-22.33-2.17-36.28,5.58-19.23,12.72-19.23,12.72,7.45,11.78,4.65,23.26c0,.24-.13.48-.2.72,5.79-8.2,18.52-23.05,36.49-26.15,5-.88,9.24-1.42,12.72-1.74C230.16,341.75,230.93,338.11,230.93,338.11Z" style="fill:#263238"></path><path d="M179.87,380.89a.59.59,0,0,1-.22-.05.51.51,0,0,1-.26-.6l0-.1c.06-.2.12-.39.17-.59,2.71-11.13-4.52-22.76-4.59-22.88a.5.5,0,0,1,.08-.63c.22-.2,5.48-5.09,19.33-12.79s36.35-5.66,36.57-5.64a.54.54,0,0,1,.36.21.49.49,0,0,1,.08.39s-.78,3.76-1.84,14.34a.51.51,0,0,1-.45.45c-3.76.34-8,.92-12.69,1.73-17.68,3.06-30.24,17.57-36.16,25.95A.52.52,0,0,1,179.87,380.89Zm-3.8-24.39c1.18,2,6.46,11.64,4.83,21.63,6.48-8.64,18.67-21.5,35.37-24.39,4.52-.78,8.67-1.35,12.35-1.7.83-8.2,1.47-12.13,1.72-13.48-3.51-.26-23-1.35-35.45,5.57C183,350.75,177.37,355.37,176.07,356.5Z" style="fill:#263238"></path><path d="M151.54,286.63s-10.23,11.48-16.43,19.85S115,341.83,97.58,345.86s-18.91-8.06-29.46-13S46.42,329.12,47,331.6s1.24,14.88,3.72,22,11.16,13,11.16,13l-3.41,1.55a15.18,15.18,0,0,0,6.2,4A57.57,57.57,0,0,0,74,373.46L71.23,375s1.24,1.24,5,1.24,25.43,2.18,34.73-7.44,17.06-34.42,22.64-45S151.54,286.63,151.54,286.63Z" style="fill:#92E3A9"></path><path d="M84.06,377c-2.42,0-4.5-.09-6-.15-.81,0-1.44-.07-1.85-.07-3.89,0-5.26-1.33-5.32-1.38a.52.52,0,0,1-.14-.43.5.5,0,0,1,.25-.36l1.32-.73a49.38,49.38,0,0,1-7.72-1.14,15.59,15.59,0,0,1-6.44-4.18.5.5,0,0,1-.12-.44.48.48,0,0,1,.28-.35l2.63-1.2c-2.16-1.59-8.53-6.68-10.64-12.76-1.73-5-2.56-12.44-3.12-17.39-.24-2.2-.43-3.93-.62-4.67a1.4,1.4,0,0,1,.58-1.47c2.42-2,12.11-2.15,21.21,2.14C72,334.08,74.5,336.58,77,339c4.74,4.62,9.22,9,20.49,6.38,13.89-3.23,25.79-21.68,32.9-32.71,1.69-2.62,3.15-4.89,4.34-6.49,6.14-8.29,16.36-19.77,16.46-19.88a.5.5,0,0,1,.83.54c-.13.27-12.48,26.81-18,37.24-1.79,3.38-3.86,8.37-6,13.64-4.59,11.08-10.31,24.86-16.67,31.44C104.74,375.91,92.42,377,84.06,377ZM72.21,375a9.21,9.21,0,0,0,4,.71c.42,0,1.06,0,1.89.07,6.66.28,24.37,1,32.48-7.36,6.23-6.44,11.91-20.12,16.47-31.12,2.2-5.3,4.27-10.3,6.09-13.73,4.37-8.25,13-26.63,16.49-34-3.38,3.88-9.76,11.33-14.1,17.19-1.16,1.57-2.62,3.82-4.3,6.43C124,324.37,112,343,97.7,346.35c-11.82,2.74-16.48-1.81-21.42-6.64-2.41-2.35-4.91-4.79-8.37-6.42C59,329.11,49.68,329.45,47.77,331c-.3.24-.26.4-.25.46.2.8.39,2.48.65,4.8.54,4.9,1.37,12.31,3.06,17.17,2.4,6.9,10.89,12.72,11,12.78a.48.48,0,0,1,.22.45.54.54,0,0,1-.29.42l-2.76,1.25a13.94,13.94,0,0,0,5.47,3.39A56.41,56.41,0,0,0,74,373a.5.5,0,0,1,.22.94Z" style="fill:#263238"></path><path d="M52.62,334.39c3.1,3.1,6.2,5.58,6.2,5.58l-7.13,3.1s5.27,2.17,6.82,3.1A64,64,0,0,0,65.33,349l-4,1.87,6.82,1.24-4,3.72L75.88,358,87,360.75l-6.51,3.72,9.92-.93-.31,2.17,7.76-5,5.27-2.79.62,2.17,6.51-5.58a41.61,41.61,0,0,0,5.89-5.28l9-6.51.19-.13c3.08-7.33,5.83-14.33,8.19-18.78,5.58-10.55,18-37.22,18-37.22s-10.23,11.48-16.43,19.85S115,341.83,97.59,345.86s-18.92-8.06-29.47-13S46.42,329.12,47,331.6C47,331.6,49.52,331.29,52.62,334.39Z" style="fill:#263238"></path><path d="M90.14,366.21a.53.53,0,0,1-.27-.08.5.5,0,0,1-.22-.49l.22-1.54-9.29.87a.51.51,0,0,1-.53-.35.5.5,0,0,1,.23-.58l5.43-3.11-9.95-2.49L64,356.28a.53.53,0,0,1-.39-.35.51.51,0,0,1,.14-.51l3.3-3-5.84-1.06a.5.5,0,0,1-.4-.43.49.49,0,0,1,.28-.52L64,349a49,49,0,0,1-5.77-2.42c-1.5-.9-6.7-3-6.75-3.07a.48.48,0,0,1-.31-.45.5.5,0,0,1,.3-.47l6.38-2.77c-1.07-.9-3.35-2.84-5.6-5.1h0c-2.86-2.86-5.15-2.65-5.18-2.64a.52.52,0,0,1-.54-.38,1.4,1.4,0,0,1,.58-1.47c2.42-2,12.11-2.15,21.21,2.14C72,334.08,74.5,336.58,77,339c4.74,4.62,9.22,9,20.49,6.38,13.89-3.23,25.79-21.68,32.9-32.71,1.69-2.62,3.15-4.89,4.34-6.49,6.14-8.29,16.36-19.77,16.46-19.88a.5.5,0,0,1,.83.54c-.13.27-12.48,26.8-18,37.24-1.79,3.39-3.86,8.38-6.06,13.67-.68,1.65-1.39,3.35-2.11,5.07a.65.65,0,0,1-.16.21l-.19.13-9,6.49a43.64,43.64,0,0,1-5.93,5.3l-6.49,5.56a.5.5,0,0,1-.47.1.49.49,0,0,1-.33-.34l-.45-1.58-4.73,2.5-7.72,4.94A.5.5,0,0,1,90.14,366.21Zm.31-3.17a.52.52,0,0,1,.5.57l-.16,1.09,6.84-4.37,5.3-2.81a.47.47,0,0,1,.43,0,.51.51,0,0,1,.29.32l.4,1.42,5.92-5.07a43.94,43.94,0,0,0,5.85-5.22l.08-.08,9.06-6.56q1-2.52,2.06-4.95c2.2-5.31,4.28-10.32,6.1-13.75,4.37-8.25,13-26.63,16.49-34-3.38,3.88-9.76,11.33-14.1,17.19-1.16,1.57-2.62,3.82-4.3,6.43C124,324.37,112,343,97.7,346.35c-11.82,2.74-16.48-1.81-21.42-6.64-2.41-2.35-4.91-4.79-8.37-6.42C59,329.11,49.68,329.45,47.77,331a.53.53,0,0,0-.11.09A9.06,9.06,0,0,1,53,334h0c3.05,3,6.13,5.52,6.16,5.54a.51.51,0,0,1,.19.46.52.52,0,0,1-.3.39L53,343.06c1.64.69,4.67,2,5.81,2.69a65.06,65.06,0,0,0,6.73,2.74.51.51,0,0,1,.33.45.5.5,0,0,1-.29.48L63,350.62l5.26.95a.5.5,0,0,1,.39.36.47.47,0,0,1-.14.5l-3.29,3.05,10.8,2,11.19,2.79a.51.51,0,0,1,.38.42.51.51,0,0,1-.25.5l-4.5,2.58,7.62-.72Z" style="fill:#263238"></path><path d="M373.72,150s17,10.61,20.24,12.84,7.65,3,9.38,5.92,3.7,5.43,4,6.42,20.49,11.6,24.19,13.33,11.35,4.44,10.61,6.66-6.66,6.17-6.66,6.17-4.2,6.42-8.4,7.66a71.72,71.72,0,0,1-12.09,2.22c-2.72.24-18-1-18.76,1.48s-1.24,4.44-1.24,4.44-.49,22.47-.49,26.41,1.48,9.39.74,11.85-.74,8.64-.74,8.64,4.69,13.09,3.21,22.22-11.11,23.45-14.81,29.87-16.29,16.78-21.48,21.23a66.42,66.42,0,0,0-8.88,9.38s-3.95,43.69-.25,56.53,7.9,19.25,7.9,19.25,6.91,5.93,10.61,8.39,3.71,3.21,3.95,5.19a33,33,0,0,1,.25,3.7H360.39s-3.95-.25-5.19-.25-5.18.25-5.18.25a34,34,0,0,1-6.42-1.23c-3.21-1-7.41-8.4-12.84-15.31s-7.16-11.6-7.16-13.08.5-20.24-.74-34.31-3-23.7-3-24.44v-2.72l-1.73-1.48a49.07,49.07,0,0,0-5.43.74c-2.22.5-14.31,1.24-14.31,1.24l.24-2-5.92,1s-4.69.74-6.42.74h-7.65l1.73-3.21s-12.1,2-15.06,2a112.36,112.36,0,0,1-14.57-1.24c-4.19-.74-15.3-3.21-15.3-3.21l-11.6-1.73s-6.17.74-9.38,1.49a42.06,42.06,0,0,0-6.91,2.46l-.75-2.46-5.43,4.19-.74-2s-8.14,4.69-9.62,5.92-6.17,3.7-6.92,4.2-32.33,23.2-40.48,27.15-24.93,4.44-24.93,4.44-17-3.95-24.44,3.71-6.91,24.76-6.91,31.17,3,8.68,5.92,9.91,6.67,1.48,7.16,4.69,2.47,2.47.5,3.21-19.75,0-19.75,0-6.17-4.19-6.42-7.9.25-46.51.74-50.22-1-6.41,2.47-7.9,13.08-1.48,22.46-4.69,14.07-11.6,14.07-11.6,5.68-17.52,8.15-22.46,19-32.58,22-38,9.87-21.72,31.6-30.6,73.06-18,84.67-20.74,28.63-5.68,36-9.13,13.32-6.17,19.25-7.9,13.08-5.43,14.56-15.8.74-23.21,12.1-37.77a172.5,172.5,0,0,0,18-28.63s3.7-2,6.42-1.49S373.72,150,373.72,150Z" style="fill:#92E3A9"></path><path d="M94.77,440.45c-5.42,0-12.42-.28-13.59-.33a.45.45,0,0,1-.26-.08c-.26-.18-6.38-4.38-6.64-8.28s.24-46.55.75-50.32a18.94,18.94,0,0,0,.09-2.88c-.05-2.27-.09-4.23,2.67-5.42a34.43,34.43,0,0,1,7.29-1.46,81.28,81.28,0,0,0,15.21-3.24c9.08-3.11,13.75-11.29,13.8-11.37.19-.63,5.68-17.53,8.13-22.44,1.44-2.88,7.64-13.44,13.11-22.76,3.92-6.69,7.63-13,8.87-15.28.24-.44.52-1,.82-1.56,3.28-6.3,10.94-21,31-29.27,16.95-6.93,51.38-13.91,71.95-18.08,5.71-1.16,10.23-2.08,12.79-2.68,3.06-.71,6.45-1.44,10-2.2,9.61-2.05,20.5-4.38,25.9-6.9,7.91-3.68,13.52-6.23,19.33-7.92,8.43-2.46,13.08-7.5,14.21-15.39.25-1.77.44-3.6.64-5.54,1-9.51,2.06-20.29,11.55-32.47a173.83,173.83,0,0,0,18-28.54.52.52,0,0,1,.21-.23c.16-.08,3.89-2.05,6.75-1.53s6.17,4.68,6.66,5.3c1.22.76,17.12,10.67,20.19,12.8a24.23,24.23,0,0,0,3.81,2c2.34,1.07,4.55,2.08,5.72,4.08.75,1.28,1.54,2.46,2.23,3.5a14.83,14.83,0,0,1,1.75,3c1.22,1.33,20,11.25,23.94,13.07.69.32,1.51.68,2.39,1.06,5.41,2.33,9.18,4.14,8.49,6.22-.75,2.24-5.86,5.75-6.78,6.37-.54.81-4.51,6.57-8.61,7.78a72.85,72.85,0,0,1-12.2,2.24c-.73.06-2.29,0-4.27,0-4.07-.09-13.61-.32-14,1.14-.66,2.21-1.13,4-1.22,4.37,0,1.26-.49,22.54-.49,26.35a42.71,42.71,0,0,0,.49,5.27c.36,2.65.7,5.17.23,6.72-.66,2.21-.72,7.66-.72,8.41.44,1.23,4.64,13.51,3.2,22.38-1.22,7.56-7.91,18.55-12.34,25.82-1,1.62-1.85,3.05-2.53,4.22-3.4,5.89-14.16,15-19.94,20l-1.64,1.4a67.08,67.08,0,0,0-8.73,9.19c-.24,2.76-3.78,44-.25,56.2,3.45,12,7.38,18.39,7.8,19.06.67.57,7.05,6,10.51,8.31,3.61,2.41,3.89,3.26,4.15,5.38l0,.16a33,33,0,0,1,.25,3.76.5.5,0,0,1-.5.5H360.39c-.07,0-4-.25-5.19-.25s-5.11.25-5.15.25a32.69,32.69,0,0,1-6.6-1.26c-2.39-.73-5.06-4.47-8.45-9.21-1.46-2-3-4.15-4.63-6.26-5.75-7.32-7.27-12-7.27-13.39,0-.17,0-.57,0-1.15.22-13.72,0-24.86-.75-33.12-.91-10.33-2.08-18.24-2.64-22-.24-1.64-.33-2.22-.33-2.44V348.9L318,347.71a44.76,44.76,0,0,0-5.16.71c-2.23.5-13.9,1.21-14.39,1.25a.5.5,0,0,1-.4-.16.51.51,0,0,1-.13-.41l.16-1.31-5.26.88c-.2,0-4.75.75-6.5.75h-7.65a.5.5,0,0,1-.44-.74l1.25-2.31c-3,.47-11.64,1.82-14.14,1.82a111.34,111.34,0,0,1-14.65-1.25c-4.16-.73-15.22-3.19-15.33-3.21L223.87,342c-.67.08-6.29.78-9.26,1.46a40.76,40.76,0,0,0-6.81,2.44.51.51,0,0,1-.42,0,.49.49,0,0,1-.27-.31l-.54-1.77-4.85,3.75a.5.5,0,0,1-.44.08.46.46,0,0,1-.33-.3l-.54-1.42c-1.8,1-7.82,4.56-9,5.58a49,49,0,0,1-5.42,3.33c-.71.41-1.33.75-1.54.89l-1.46,1c-26.34,18.72-35.79,24.55-39.08,26.15-8.15,3.95-24.45,4.47-25.14,4.49a.25.25,0,0,1-.12,0c-.17,0-16.85-3.79-24,3.57-6.86,7.09-6.8,22.92-6.77,29.68v1.14c0,6.27,2.84,8.29,5.62,9.45.67.28,1.4.52,2.11.74,2.42.78,4.92,1.58,5.35,4.34a3.55,3.55,0,0,0,1,2.25.76.76,0,0,1,.31.72c-.08.37-.35.47-1.17.78A31.05,31.05,0,0,1,94.77,440.45Zm-13.4-1.32c7.1.29,18,.54,19.4,0l.27-.1a4.77,4.77,0,0,1-1.08-2.56c-.33-2.15-2.34-2.79-4.66-3.53-.73-.24-1.48-.48-2.2-.77-2.9-1.21-6.23-3.49-6.23-10.38v-1.13c0-7.47-.09-23,7-30.39,7.36-7.61,23.51-4.16,24.85-3.86,1.13,0,17-.65,24.66-4.39,3.26-1.58,12.66-7.38,38.94-26.06l1.49-1.06c.24-.16.81-.48,1.6-.93a49.67,49.67,0,0,0,5.27-3.23c1.49-1.25,9.36-5.78,9.69-6a.52.52,0,0,1,.42,0,.48.48,0,0,1,.3.29l.5,1.34,4.9-3.78a.5.5,0,0,1,.46-.08.48.48,0,0,1,.32.33l.58,1.92a39.92,39.92,0,0,1,6.48-2.26c3.2-.74,9.19-1.46,9.44-1.49H224l11.6,1.73c.15,0,11.18,2.48,15.32,3.21a113,113,0,0,0,14.48,1.23c2.89,0,14.86-1.95,15-2a.48.48,0,0,1,.48.2.51.51,0,0,1,0,.53l-1.33,2.47h6.81c1.67,0,6.29-.73,6.34-.74l5.92-1a.49.49,0,0,1,.43.13.51.51,0,0,1,.15.42l-.17,1.38c2.46-.16,11.76-.77,13.63-1.19a49.13,49.13,0,0,1,5.51-.75.52.52,0,0,1,.36.12l1.73,1.48a.52.52,0,0,1,.17.38v2.72c0,.16.14,1.1.32,2.3.56,3.81,1.73,11.73,2.64,22.09.73,8.29,1,19.47.76,33.22,0,.58,0,1,0,1.14,0,1.47,1.92,6.23,7.06,12.77,1.67,2.13,3.18,4.25,4.65,6.3,3.15,4.4,5.87,8.2,7.94,8.84a32.57,32.57,0,0,0,6.31,1.21c.09,0,3.91-.25,5.14-.25s5.06.24,5.22.25h14c0-.65-.07-1.84-.23-3.14l0-.15c-.22-1.75-.3-2.4-3.71-4.68-3.69-2.46-10.6-8.37-10.67-8.43l-.09-.11c0-.06-4.28-6.62-8-19.38s.07-54.93.23-56.72a.46.46,0,0,1,.1-.25,67.05,67.05,0,0,1,9-9.46l1.64-1.4c5.74-4.88,16.41-14,19.73-19.7.67-1.18,1.55-2.62,2.54-4.24,4.38-7.2,11-18.09,12.21-25.46,1.44-8.9-3.14-21.84-3.19-22a.47.47,0,0,1,0-.17c0-.25,0-6.27.76-8.78.41-1.35.08-3.75-.26-6.3a44.09,44.09,0,0,1-.5-5.4c0-3.92.49-26.2.49-26.43,0,0,0-.07,0-.11s.5-2,1.24-4.46c.56-1.86,5.49-2.08,15-1.86,1.86,0,3.47.08,4.15,0a70.7,70.7,0,0,0,12-2.2c4-1.17,8.08-7.39,8.12-7.45a.47.47,0,0,1,.14-.14c1.61-1.07,5.91-4.23,6.47-5.92.46-1.37-5-3.72-7.94-5-.89-.39-1.72-.75-2.41-1.07-1-.48-24.1-12.19-24.47-13.66a15,15,0,0,0-1.63-2.73c-.7-1.05-1.5-2.25-2.26-3.56-1-1.72-3.08-2.67-5.28-3.67a25.4,25.4,0,0,1-4-2.09c-3.16-2.19-20.05-12.72-20.22-12.83a.69.69,0,0,1-.13-.11c0-.05-3.61-4.55-6.11-5-2.22-.41-5.27,1-5.95,1.35a175,175,0,0,1-18,28.58c-9.31,12-10.4,22.57-11.35,32-.2,1.95-.39,3.79-.64,5.58-1.19,8.32-6.07,13.63-14.92,16.21-5.74,1.67-11.32,4.2-19.18,7.87-5.51,2.57-16,4.8-26.12,7-3.58.76-7,1.48-10,2.2-2.58.6-7.1,1.52-12.83,2.68-20.53,4.16-54.9,11.13-71.77,18-19.74,8.08-27,22.08-30.51,28.8-.31.6-.58,1.13-.83,1.58-1.25,2.29-5,8.61-8.89,15.3-5.46,9.31-11.65,19.86-13.07,22.7-2.43,4.85-8.06,22.22-8.12,22.4a28.16,28.16,0,0,1-14.39,11.92,83.09,83.09,0,0,1-15.39,3.28,34.72,34.72,0,0,0-7,1.39c-2.15.92-2.12,2.26-2.07,4.47a20.09,20.09,0,0,1-.1,3c-.49,3.68-1,46.71-.74,50.12C75.49,434.84,80.54,438.54,81.37,439.13Z" style="fill:#263238"></path><path d="M358.63,152.25s-.76,1.89-.38,6.43.76,6.43,4.16,10.59,2.27-1.89,3.41,4.17,2.64,8.7-.76,9.83-21.57-10.21-19.3-7.56,8.33,7.56,14,11l5.68,3.4,5.81,8,2.51,2.21s-3.4-6.44-3.78-11.35-.38-10.22,2.27-11.73,9.08-3.41,7.94-10.59S373.72,150,373.72,150s.83-.49-3.36,4.94S360.52,154.9,358.63,152.25Z" style="fill:#263238"></path><path d="M373.76,200.8a.51.51,0,0,1-.33-.13l-2.51-2.2a.3.3,0,0,1-.08-.08l-5.75-7.93-5.58-3.35c-5.89-3.54-11.92-8.5-14.13-11.08-.12-.15-.51-.6-.19-1s.92-.33,6.11,2.32c4.42,2.26,11.81,6,13.6,5.45,2.2-.73,2-1.94,1.11-6-.21-1-.46-2-.69-3.26-.19-1-.33-1.81-.43-2.25a1.18,1.18,0,0,1-.55.08c-.64-.06-1.38-.62-2.32-1.77-3.44-4.21-3.88-6.21-4.27-10.87s.38-6.57.41-6.66a.53.53,0,0,1,.41-.31.49.49,0,0,1,.46.21c1.25,1.74,4.14,4.71,7.07,4.76a4.76,4.76,0,0,0,3.86-2.13,41.82,41.82,0,0,0,3.26-4.53.5.5,0,0,1,.24-.53.59.59,0,0,1,.69.1.44.44,0,0,1,.15.34c.88,1.61,5.34,10,6.39,16.58s-3.94,9-6.91,10.44c-.48.24-.92.45-1.29.66-2.44,1.4-2.36,6.75-2,11.26.37,4.75,3.7,11.09,3.73,11.15a.5.5,0,0,1-.44.74Zm-2.14-3,.63.55a31.27,31.27,0,0,1-2.77-9.32c-.39-5.1-.4-10.54,2.52-12.21.38-.21.84-.44,1.34-.69,3.07-1.51,7.27-3.58,6.36-9.39s-4.6-13.08-5.94-15.6c-.49.78-1.41,2-3,4.1a5.66,5.66,0,0,1-4.67,2.52c-2.88-.05-5.64-2.47-7.21-4.35a20.6,20.6,0,0,0-.12,5.27c.37,4.52.77,6.31,4.05,10.32,1,1.22,1.47,1.39,1.63,1.4s.11,0,.21-.1a.68.68,0,0,1,.67-.17c.41.15.43.2,1,3.25.22,1.21.46,2.28.68,3.23.86,3.82,1.38,6.13-1.77,7.18-2,.67-7.7-2.1-14.38-5.51-1.33-.68-2.77-1.42-3.81-1.9a74.68,74.68,0,0,0,13,9.91l5.67,3.4a.5.5,0,0,1,.15.14Z" style="fill:#263238"></path><path d="M366.56,165.76s-5.19-10.12-5.43-14.81-.25-26.42,4.44-23.45,4.2,13.08,5.18,15.55A68.84,68.84,0,0,1,374,155.88a14.39,14.39,0,0,1-1.23,7.41" style="fill:#92E3A9"></path><path d="M366.56,166.26a.51.51,0,0,1-.45-.27c-.21-.42-5.23-10.28-5.48-15,0-.21-.81-21.64,3.25-24a1.78,1.78,0,0,1,2,.11c3.55,2.25,4.26,8.05,4.77,12.29a18.38,18.38,0,0,0,.61,3.5,70.31,70.31,0,0,1,3.24,13,14.75,14.75,0,0,1-1.29,7.69.5.5,0,0,1-.67.23.51.51,0,0,1-.22-.67,14.09,14.09,0,0,0,1.19-7.12,69.51,69.51,0,0,0-3.18-12.72,17.54,17.54,0,0,1-.67-3.75c-.46-3.81-1.16-9.57-4.32-11.56-.46-.29-.73-.21-.91-.1-2.71,1.59-3.08,17.17-2.76,23.1.23,4.53,5.32,14.51,5.37,14.61a.49.49,0,0,1-.22.67A.46.46,0,0,1,366.56,166.26Z" style="fill:#263238"></path><path d="M365.57,127.5s-2.22,14.56-.49,21.72,6.54,15.78,6.79,16.27" style="fill:#92E3A9"></path><path d="M371.87,166a.5.5,0,0,1-.45-.28l-.15-.27a73.52,73.52,0,0,1-6.68-16.1c-1.73-7.18.39-21.32.49-21.92a.5.5,0,0,1,.56-.42.49.49,0,0,1,.42.57c0,.15-2.18,14.55-.5,21.53A72.21,72.21,0,0,0,372.15,165l.17.31a.51.51,0,0,1-.23.67A.59.59,0,0,1,371.87,166Z" style="fill:#263238"></path><path d="M431.48,188.47c-3.7-1.73-24-12.35-24.19-13.33a14.73,14.73,0,0,0-1.76-3l-1,.51s-3-4.44-6.17-4.2-4.2.74-3.46,1.48-1,1,2,.74,3.95-1,5.18,1.73-3.21-.24-5.18,1.48-6.42,4.2-7.9,5.19l-1.48,1s3.7.5,5.43,3.46,1.73,6.67-.74,10.62-5.93,7.15-9.13,7.4-11.11-3-11.85-3.46,2.71,6.42,9.38,7.66,10.61,1.48,13.57,2.71c2.55,1.06,6.93,1.94,9.52,2.64,4.55-.09,9.74.21,11.22.08A71.72,71.72,0,0,0,427,209c4.2-1.24,8.4-7.66,8.4-7.66s5.92-4,6.66-6.17S435.18,190.2,431.48,188.47Z" style="fill:#263238"></path><path d="M413.75,211.71c-.8,0-1.85,0-3-.05-2.06,0-4.63-.11-7-.06a.32.32,0,0,1-.14,0c-.74-.2-1.62-.41-2.57-.64a51.44,51.44,0,0,1-7-2,35.94,35.94,0,0,0-7.71-1.71c-1.67-.27-3.57-.56-5.76-1-5.9-1.09-9.6-6.63-9.87-7.94a.57.57,0,0,1,.22-.64.64.64,0,0,1,.63,0c.61.4,8.49,3.61,11.54,3.37,2.76-.21,6.11-3,8.74-7.17,2.25-3.59,2.5-7.08.74-10.1-1.58-2.71-5-3.2-5.07-3.21a.5.5,0,0,1-.21-.91l1.48-1c.44-.29,1.13-.71,1.94-1.2a50.06,50.06,0,0,0,5.91-3.94c1.11-1,2.78-.71,4-.52a5.79,5.79,0,0,0,1.21.11,1.87,1.87,0,0,0-.16-.49c-.87-1.9-1.38-1.84-3.27-1.59-.42.05-.89.11-1.42.15-1.66.14-2,.16-2.23-.15a.63.63,0,0,1-.09-.61s0-.07-.05-.12a1,1,0,0,1-.33-1.07c.22-.59,1-1,4.1-1.27,2.93-.22,5.54,2.94,6.36,4.05l.57-.3a.5.5,0,0,1,.65.16,15.34,15.34,0,0,1,1.81,3.06c1.22,1.33,20,11.25,23.94,13.07h0c.69.32,1.51.68,2.39,1.06,5.41,2.33,9.18,4.14,8.49,6.22-.75,2.24-5.86,5.75-6.78,6.37-.54.81-4.51,6.57-8.61,7.78a72.85,72.85,0,0,1-12.2,2.24C414.69,211.7,414.27,211.71,413.75,211.71Zm-8.17-1.13c1.8,0,3.62,0,5.15.08,1.87,0,3.48.08,4.16,0a70.7,70.7,0,0,0,12-2.2c4-1.17,8.08-7.39,8.12-7.45a.47.47,0,0,1,.14-.14c1.61-1.07,5.91-4.23,6.47-5.92.46-1.37-5-3.72-7.94-5-.89-.39-1.72-.75-2.41-1.07h0c-1-.48-24.1-12.19-24.47-13.66a13.08,13.08,0,0,0-1.44-2.45l-.55.3a.5.5,0,0,1-.65-.16s-2.85-4.19-5.72-4a8.37,8.37,0,0,0-3.18.58l0,0a1.14,1.14,0,0,1,.35.68c.36,0,.91-.06,1.23-.08.51,0,1-.1,1.37-.16,2-.25,3.14-.4,4.31,2.18a1.51,1.51,0,0,1,.07,1.52c-.4.54-1.19.41-2.19.26s-2.43-.38-3.19.28a50.84,50.84,0,0,1-6.05,4.05c-.79.48-1.47.89-1.9,1.17l-.53.35a8,8,0,0,1,4.63,3.43c1.93,3.31,1.67,7.27-.75,11.13-2.84,4.54-6.39,7.4-9.52,7.64-2.67.21-8.48-1.88-11-3,1.11,1.8,4.11,5.35,8.6,6.19,2.18.4,4.07.7,5.73,1A36.24,36.24,0,0,1,394.4,208a51.51,51.51,0,0,0,6.86,2c.92.22,1.79.43,2.52.63Z" style="fill:#263238"></path><path d="M401.86,175.75c0,1.44-.83,2.6-1.86,2.6s-1.85-1.16-1.85-2.6.83-2.59,1.85-2.59S401.86,174.32,401.86,175.75Z" style="fill:#919191"></path><path d="M400,178.85c-1.32,0-2.36-1.36-2.36-3.1s1-3.09,2.36-3.09,2.35,1.36,2.35,3.09S401.32,178.85,400,178.85Zm0-5.19c-.74,0-1.36,1-1.36,2.09s.62,2.1,1.36,2.1,1.35-1,1.35-2.1S400.74,173.66,400,173.66Z" style="fill:#263238"></path><path d="M435.18,190.2s-6.66.74-5.43,4.19,5.68,5.43,6.42,5.43,6.42-1.73,5.92-4.69S435.18,190.2,435.18,190.2Z" style="fill:#263238"></path><path d="M436.17,200.32c-1,0-5.61-2.16-6.89-5.76a2.54,2.54,0,0,1,.2-2.3c1.28-2,5.47-2.54,5.65-2.56a.47.47,0,0,1,.2,0c.27.08,6.72,2.1,7.26,5.33a3,3,0,0,1-.77,2.44A10.67,10.67,0,0,1,436.17,200.32Zm-1-9.62c-1.15.15-4,.77-4.8,2.09a1.55,1.55,0,0,0-.11,1.43c1.14,3.18,5.29,5.08,5.95,5.1a9.69,9.69,0,0,0,4.89-2.49,1.92,1.92,0,0,0,.54-1.62C441.24,193.08,436.91,191.27,435.13,190.7Z" style="fill:#263238"></path><path d="M374.7,436.06c-.24-2-.24-2.72-3.95-5.19s-10.61-8.39-10.61-8.39-4.2-6.42-7.9-19.25.25-56.53.25-56.53a66.42,66.42,0,0,1,8.88-9.38c5.19-4.45,17.78-14.81,21.48-21.23,0,0-15.64,14-22.26,18.58s-9.53,3.31-11.6,7.87-7.45,59.23-5.38,66.68,6.21,15.74,7.45,16.57a67.73,67.73,0,0,0,8.7,3.73c3.31,1.24,6.3,10.24,6.3,10.24H375A33,33,0,0,0,374.7,436.06Z" style="fill:#92E3A9"></path><path d="M375,440.26h-8.89a.51.51,0,0,1-.47-.34c-.81-2.44-3.47-9-6-9.93-2.15-.81-7.32-2.8-8.8-3.78s-5.67-9.71-7.65-16.85c-2.24-8,3.43-62.69,5.41-67,1.31-2.88,2.95-3.59,5.44-4.67a32.87,32.87,0,0,0,6.32-3.4c6.53-4.49,22.06-18.4,22.21-18.54a.49.49,0,0,1,.65,0,.51.51,0,0,1,.12.64c-3.4,5.89-14.16,15-19.94,20l-1.64,1.4a67.08,67.08,0,0,0-8.73,9.19c-.24,2.76-3.78,44-.25,56.2,3.45,12,7.38,18.39,7.8,19.06.67.57,7.05,6,10.51,8.31,3.61,2.41,3.89,3.26,4.15,5.38l0,.16a33,33,0,0,1,.25,3.76A.5.5,0,0,1,375,440.26Zm-8.53-1h8c0-.65-.07-1.84-.23-3.14h0l0-.15c-.22-1.75-.3-2.4-3.71-4.68-3.69-2.46-10.6-8.37-10.67-8.43l-.09-.11c0-.06-4.28-6.62-8-19.38s.07-54.93.23-56.72a.46.46,0,0,1,.1-.25,67.05,67.05,0,0,1,9-9.46l1.64-1.4c4.62-3.93,12.44-10.58,17-16-5,4.41-14.2,12.36-18.86,15.56a33.71,33.71,0,0,1-6.49,3.5c-2.44,1.05-3.78,1.63-4.93,4.17-2.17,4.75-7.3,59.36-5.36,66.34,2.05,7.4,6.17,15.57,7.25,16.28a62.21,62.21,0,0,0,8.59,3.68C363.09,430.23,365.82,437.55,366.42,439.26Z" style="fill:#263238"></path><path d="M362.73,280.74c-6.51-14-22.33-27.6-28.53-31s-12.71-5.27-16.44-11.48c-2.21-3.68-4.42-6.48-6.63-8.09-4.33,1.63-8.87,3.72-14.18,6.2-7.41,3.45-24.44,6.41-36,9.13s-63,11.85-84.67,20.74a56.49,56.49,0,0,0-23.61,17.56,23,23,0,0,1-1.09,2.84c-.62.93,4.35-1.24,12.1-8.68,4.65-4.46,12.41-8.36,17.89-10.78a18.17,18.17,0,0,0-2.39,2.41c-4.65,5.58-5.89,5.89-5.58,8.68s6.82,0,5.89,4-10.54,2.48-4.34,18,19.85,14,19.85,14-4.34,5.58-2.48,9.93,9.61-4,21.71.31,29.46,11.16,45.89,14.57,25.74,5.58,26.67,3.1,5.59-9.92,5.59-6.2,5,5.89,5.89,3.41S301,329.43,302,331s1.86,7.75,4,4.65,5-8.37,6.51-17.06.31-28.22-3.72-40-15.19-26.67-17-27.91,0-6.51-2.8-7.13-12.4,1.24-8.06-.62,11.48-4.66,15.51-1.24S310,264.92,315,272.06s7.76,21.39,7.45,14.26-6.21-18.29-8.69-26.05-1.24-10.54-1.24-10.54,17.37,1.55,24.5,6.2S369.24,294.69,362.73,280.74Z" style="fill:#263238"></path><path d="M283.66,343.72c-3.62,0-10.06-1.35-19.92-3.41l-3.76-.78c-14-2.9-28.46-8.2-40.1-12.46-2.06-.76-4-1.47-5.86-2.13-6.6-2.37-11.82-.89-15.63.2-3,.86-5.38,1.53-6.37-.79-1.53-3.57.79-7.81,1.95-9.58-3.37,0-14.05-1.14-19.32-14.31-4.54-11.33-.71-14,2.09-15.91,1.07-.74,2-1.38,2.23-2.37a1.51,1.51,0,0,0-.09-1.23c-.37-.5-1.41-.6-2.42-.69-1.43-.12-3.21-.28-3.39-1.95-.26-2.29.5-3.15,2.77-5.69.77-.86,1.73-1.94,2.92-3.36l.39-.46c-5.18,2.43-11.28,5.78-15.17,9.51-5.7,5.48-11.8,9.71-12.79,8.88a.61.61,0,0,1-.06-.84c.15-.22.57-1.43,1-2.72a.31.31,0,0,1,.08-.15,57.37,57.37,0,0,1,23.81-17.72c16.95-6.93,51.38-13.91,71.94-18.08,5.72-1.16,10.24-2.08,12.8-2.68,3.06-.71,6.45-1.44,10-2.2,9.61-2.05,20.5-4.38,25.9-6.9s9.87-4.57,14.23-6.2a.47.47,0,0,1,.47.06c2.17,1.58,4.39,4.28,6.76,8.24,2.79,4.65,7.24,6.81,11.94,9.1,1.41.69,2.88,1.4,4.31,2.19,6.65,3.66,22.38,17.61,28.74,31.24,1.34,2.86,1.31,3.59.78,3.93-1,.64-2.79-1.15-12.06-12-5.7-6.65-12.16-14.18-15.18-16.15-6.35-4.14-21.21-5.81-23.87-6.08-.21.93-.55,3.88,1.36,9.85.84,2.61,2.05,5.59,3.34,8.74,2.53,6.21,5.16,12.64,5.37,17.44.07,1.75,0,2.35-.55,2.45s-.92-.56-2.1-3.86c-1.29-3.58-3.22-9-5.71-12.55-2-2.91-4.76-7.82-7.66-13-4.19-7.52-8.53-15.3-10.86-17.27-3.88-3.29-11.23-.29-14.67,1.18.58,0,1.25-.08,1.86-.13A25.77,25.77,0,0,1,289,243c1.91.42,2.05,2.48,2.17,4.29.08,1.23.17,2.5.79,2.91,1.94,1.29,13.19,16.28,17.25,28.17s5.34,31.34,3.74,40.25c-1.24,7-3.46,12.78-6.59,17.26-.21.29-.83,1.19-1.72,1.05-1.19-.17-1.82-2.06-2.44-3.89a17.09,17.09,0,0,0-.62-1.68,32,32,0,0,0-2.07,5.55c-.31,1-.61,1.95-.84,2.58a2.3,2.3,0,0,1-2.74,1.33,5.22,5.22,0,0,1-4.12-4.92,2,2,0,0,0,0-.5c-1,.39-3.76,4.73-4.57,6.88C286.86,343.29,285.71,343.72,283.66,343.72Zm-76.75-21a21.81,21.81,0,0,1,7.45,1.32l5.87,2.13c11.61,4.25,26.06,9.54,40,12.42l3.75.78c12.56,2.63,21.64,4.52,22.34,2.64.5-1.31,4-7.86,5.75-7.54.53.1.81.61.81,1.51a4.24,4.24,0,0,0,3.3,3.93,1.32,1.32,0,0,0,1.62-.69c.23-.61.52-1.54.83-2.53,1.46-4.69,2.1-6.27,3-6.38a.82.82,0,0,1,.8.45,11.86,11.86,0,0,1,.8,2c.37,1.1,1.05,3.14,1.64,3.22.07,0,.31,0,.75-.64,3.05-4.35,5.21-10,6.43-16.85,1.57-8.8.3-28.08-3.7-39.76-3.92-11.45-15-26.44-16.86-27.65-1-.69-1.14-2.21-1.24-3.68-.12-1.89-.29-3.14-1.38-3.39a26.62,26.62,0,0,0-5.51.09c-3.14.24-3.88.27-4-.38s.49-.89,1.39-1.27c5.72-2.45,12.09-4.5,16-1.17,2.47,2.09,6.85,9.95,11.08,17.55,2.89,5.18,5.62,10.07,7.61,12.94,2.57,3.68,4.53,9.16,5.83,12.78.24.69.49,1.38.71,2v-.17c-.2-4.62-2.79-11-5.3-17.11-1.29-3.17-2.52-6.16-3.36-8.81-2.51-7.84-1.28-10.77-1.22-10.89a.48.48,0,0,1,.5-.3c.71.06,17.57,1.62,24.72,6.28,3.14,2.05,9.66,9.64,15.4,16.34,4.25,5,9,10.52,10.59,11.56a14.73,14.73,0,0,0-1-2.46h0C356,267.52,340.51,253.77,334,250.17c-1.42-.78-2.87-1.49-4.27-2.17-4.84-2.36-9.41-4.58-12.35-9.49a28.12,28.12,0,0,0-6.29-7.78c-4.24,1.6-8.62,3.62-13.89,6.08-5.51,2.57-16,4.8-26.12,7-3.59.76-7,1.48-10,2.2-2.58.6-7.1,1.52-12.83,2.68-20.53,4.16-54.9,11.13-71.77,18A56.36,56.36,0,0,0,153.08,284c-.32.9-.55,1.56-.73,2,1.6-.78,5.52-3.27,10.94-8.47,4.66-4.48,12.38-8.38,18-10.87a.5.5,0,0,1,.53.84,17.13,17.13,0,0,0-2.32,2.34c-1.2,1.43-2.17,2.52-2.95,3.39-2.2,2.47-2.73,3.06-2.52,4.91.09.8,1,.93,2.49,1.07,1.23.11,2.5.22,3.14,1.1a2.38,2.38,0,0,1,.25,2c-.31,1.37-1.44,2.15-2.64,3-2.65,1.83-6,4.12-1.72,14.71,6,15,18.78,13.7,19.32,13.65a.48.48,0,0,1,.5.25.52.52,0,0,1,0,.55c-.05,0-4.14,5.4-2.42,9.42.62,1.45,2,1.12,5.18.22A30.83,30.83,0,0,1,206.91,322.68Z" style="fill:#263238"></path><path d="M319.9,348.67a50.23,50.23,0,0,0,.55-9.55,41.15,41.15,0,0,0-2-9.27l-3.48,17.38A3.92,3.92,0,0,1,319.9,348.67Z" style="fill:#263238"></path><path d="M319.9,349.17a.52.52,0,0,1-.41-.21,3.41,3.41,0,0,0-4.33-1.28.49.49,0,0,1-.52-.06.5.5,0,0,1-.19-.49l3.48-17.38a.5.5,0,0,1,.45-.4.49.49,0,0,1,.51.33,41.31,41.31,0,0,1,2.06,9.4,50.71,50.71,0,0,1-.55,9.67.51.51,0,0,1-.39.41Zm-3.26-2.81a4.19,4.19,0,0,1,2.92,1.15,48,48,0,0,0,.39-8.36,37.52,37.52,0,0,0-1.42-7.29l-2.93,14.62A4.3,4.3,0,0,1,316.64,346.36Z" style="fill:#263238"></path><path d="M361.37,337.32c5.19-4.45,17.78-14.81,21.48-21.23,0,0-15.64,14-22.26,18.58s-9.53,3.31-11.6,7.87c-.75,1.66-1.94,9.93-3.05,20.16a14.32,14.32,0,0,1,4.5-5.89c.4-.27.85-.6,1.34-.95.38-5.51.71-9.16.71-9.16A66.42,66.42,0,0,1,361.37,337.32Z" style="fill:#263238"></path><path d="M345.94,363.2l-.14,0a.5.5,0,0,1-.36-.54c.45-4.16,2-17.92,3.1-20.31,1.31-2.88,2.95-3.59,5.44-4.67a32.87,32.87,0,0,0,6.32-3.4c6.53-4.49,22.06-18.4,22.21-18.54a.49.49,0,0,1,.65,0,.51.51,0,0,1,.12.64c-3.4,5.89-14.16,15-19.94,20l-1.64,1.4h0a67.08,67.08,0,0,0-8.73,9.19c-.06.73-.36,4.17-.69,9a.54.54,0,0,1-.21.37l-1.34,1a13.86,13.86,0,0,0-4.34,5.69A.49.49,0,0,1,345.94,363.2Zm33.79-43.68c-5,4.41-14.2,12.36-18.86,15.56a33.71,33.71,0,0,1-6.49,3.5c-2.44,1.05-3.78,1.63-4.93,4.17-.63,1.37-1.65,7.95-2.73,17.42a12.82,12.82,0,0,1,3.43-3.76l1.14-.82c.37-5.32.7-8.9.7-8.94a.46.46,0,0,1,.1-.25,67.05,67.05,0,0,1,9-9.46l1.64-1.4C367.31,331.61,375.13,325,379.73,319.52Zm-18.36,17.8h0Z" style="fill:#263238"></path><path d="M84,382.82s5.75-5.18,13.22-5.18,19,5.75,35.08-2.3,25.3-14.37,36.22-19.55,17.83-10.35,20.13-16.1,8.63-19.55,8.63-19.55S184.61,341.42,180,344.87s-30.48,18.4-40.83,23-6.33,6.9-20.7,8.05S89.73,370.74,84,382.82Z" style="fill:#263238"></path><path d="M84,383.32a.47.47,0,0,1-.3-.1.51.51,0,0,1-.16-.62c4.2-8.8,12.65-8.18,22.44-7.45a82.13,82.13,0,0,0,12.48.27c9.06-.73,10.67-1.89,13.33-3.83a34.92,34.92,0,0,1,7.21-4.18c10.16-4.52,36-19.4,40.73-22.94,4.46-3.36,17-24.37,17.12-24.59a.49.49,0,0,1,.66-.18.5.5,0,0,1,.22.65c-.06.14-6.35,13.85-8.62,19.53s-8.73,10.85-20.37,16.36c-5.35,2.54-10.22,5.31-15.85,8.52s-12.17,6.93-20.37,11c-12.11,6-21.76,4.38-28.81,3.15a40.18,40.18,0,0,0-6.49-.8c-7.19,0-12.83,5-12.89,5.05A.46.46,0,0,1,84,383.32Zm14.55-7.55c-5.38,0-9.92,1-12.88,5.16a21.36,21.36,0,0,1,11.55-3.79,40.51,40.51,0,0,1,6.66.82c6.91,1.2,16.38,2.84,28.19-3.06,8.18-4.09,14.63-7.77,20.32-11s10.53-6,15.92-8.55c11.4-5.4,17.71-10.43,19.88-15.83,1.17-2.95,3.42-8,5.33-12.28-4.13,6.57-10.23,15.81-13.2,18-4.74,3.56-30.72,18.52-40.92,23.06a33.78,33.78,0,0,0-7,4.07c-2.8,2-4.5,3.27-13.84,4a81.42,81.42,0,0,1-12.63-.28C103.32,376,100.85,375.77,98.53,375.77Z" style="fill:#263238"></path><path d="M325.49,296.56a43,43,0,0,1,1.72,9.78c0,4-1.15,13.23-1.72,20.13s.57,19,.57,19,5.75-7.47,5.18-12.07S325.49,296.56,325.49,296.56Z" style="fill:#263238"></path><path d="M326.06,345.94l-.14,0a.51.51,0,0,1-.36-.43c0-.12-1.14-12.2-.57-19.07.2-2.44.48-5.18.75-7.84.44-4.41.87-8.6.95-11.29-.94-5.93-1.68-10.53-1.7-10.65a.5.5,0,0,1,.39-.56.5.5,0,0,1,.59.34,43,43,0,0,1,1.74,9.92c0,.27,0,.57,0,.88,1.56,9.83,3.68,23.25,4,26.08.6,4.75-5,12.13-5.27,12.45A.53.53,0,0,1,326.06,345.94Zm1.34-34.2c-.18,2.1-.42,4.49-.67,6.94-.27,2.65-.54,5.4-.74,7.83-.46,5.43.18,14.21.45,17.55,1.53-2.21,4.72-7.29,4.3-10.63C330.44,331,328.84,320.79,327.4,311.74Z" style="fill:#263238"></path><path d="M374.41,255.15a.54.54,0,0,1-.21-.05l-3.48-1.61a.5.5,0,0,1,.42-.9l3.48,1.6a.5.5,0,0,1-.21,1Z" style="fill:#263238"></path><path d="M368,251.13a.47.47,0,0,1-.35-.15c-.4-.39-1.21-1.33-2-2.2l.11.37a.51.51,0,0,1-.17.54.5.5,0,0,1-.57,0c-.06,0-5.13-3.24-7.79-5.1a27.19,27.19,0,0,1-4.05-3.48l-1.54,1.19a.49.49,0,0,1-.66,0l-7.74-7.74a.5.5,0,0,1,0-.71.51.51,0,0,1,.71,0l7.43,7.43,1.55-1.21a.51.51,0,0,1,.69.07,24.19,24.19,0,0,0,4.19,3.67c1.87,1.31,5,3.29,6.61,4.35l-.42-1.39a.49.49,0,0,1,.24-.58.48.48,0,0,1,.62.12s2.68,3.2,3.45,4a.48.48,0,0,1,0,.7A.47.47,0,0,1,368,251.13Z" style="fill:#263238"></path><path d="M341.27,232.27a.49.49,0,0,1-.38-.18,13,13,0,0,1-3.24-10.38.5.5,0,0,1,1,.2,12.23,12.23,0,0,0,3,9.53.51.51,0,0,1-.06.71A.49.49,0,0,1,341.27,232.27Z" style="fill:#263238"></path><path d="M353.27,216.33a.46.46,0,0,1-.28-.08l-5-3.43.18,2.17a.48.48,0,0,1-.25.47.49.49,0,0,1-.53,0l-4.55-3.21-2.74-2.73.31,2a.5.5,0,0,1-.9.37,21.47,21.47,0,0,0-2.85-3.12c-1.44-1.15-2.47-5.66-2.59-6.17a.5.5,0,0,1,1-.22c.4,1.8,1.36,4.91,2.23,5.61a14.85,14.85,0,0,1,1.86,1.86l-.26-1.66a.5.5,0,0,1,.27-.52.49.49,0,0,1,.58.09l3.75,3.75,3.61,2.54-.18-2.15a.48.48,0,0,1,.25-.47.49.49,0,0,1,.53,0l5.89,4a.5.5,0,0,1,.13.7A.49.49,0,0,1,353.27,216.33Z" style="fill:#263238"></path><path d="M375,238.82a.49.49,0,0,1-.28-.09c-.58-.38-3-1.93-4.31-2.72v1.77a.51.51,0,0,1-.71.46c-.14-.07-3.5-1.62-4.56-2.15a67.85,67.85,0,0,1-6-4.89.51.51,0,0,1,0-.71.5.5,0,0,1,.71,0,61.72,61.72,0,0,0,5.78,4.74c.75.38,2.75,1.31,3.82,1.81v-1.89a.5.5,0,0,1,.26-.44.52.52,0,0,1,.51,0c.17.11,4.3,2.69,5.1,3.22a.51.51,0,0,1,.14.7A.52.52,0,0,1,375,238.82Z" style="fill:#263238"></path><path d="M376.38,283.81a.59.59,0,0,1-.23-.05l-4.67-2.34a.5.5,0,0,1-.23-.67.51.51,0,0,1,.67-.23l3.83,1.92-.63-4.43-4.25-7.72a.5.5,0,0,1,.58-.72l4.24,1.21-3.39-5.59a.5.5,0,0,1,.84-.54l.54.84,3.52,5.87a.5.5,0,0,1,0,.56.49.49,0,0,1-.53.17l-4.3-1.23,3.71,6.75a.34.34,0,0,1,0,.17l.78,5.46a.5.5,0,0,1-.2.48A.52.52,0,0,1,376.38,283.81Z" style="fill:#263238"></path><path d="M371.4,263.35a.51.51,0,0,1-.42-.23l-.87-1.38a.5.5,0,0,1,.15-.69.49.49,0,0,1,.69.16l.88,1.37a.51.51,0,0,1-.16.69A.5.5,0,0,1,371.4,263.35Z" style="fill:#263238"></path><path d="M412.71,175.81s-5.26,7.54-5.92,13.72-4,13.73-4,13.73l-5.42-.87s5.53-17.62,6.63-21.16a74.65,74.65,0,0,1,3.11-7.82Z" style="fill:#949494"></path><path d="M402.77,203.76h-.08l-5.41-.87a.47.47,0,0,1-.35-.23.46.46,0,0,1-.05-.41s5.52-17.62,6.62-21.16a78.09,78.09,0,0,1,3.14-7.88.49.49,0,0,1,.65-.25l5.61,2.4a.51.51,0,0,1,.29.32.52.52,0,0,1-.07.42c-.05.08-5.19,7.51-5.83,13.5-.67,6.19-3.93,13.56-4.06,13.87A.53.53,0,0,1,402.77,203.76ZM398,202l4.45.71c.66-1.55,3.27-7.94,3.83-13.22S410.76,177.85,412,176l-4.61-2a74.27,74.27,0,0,0-2.88,7.32Z" style="fill:#263238"></path><path d="M418.86,179.12s-5,6.12-5.68,12.31-4,13.72-4,13.72l-5.42-.87s5.53-17.62,6.63-21.15a31.52,31.52,0,0,1,2.87-6.41Z" style="fill:#949494"></path><path d="M409.16,205.65h-.08l-5.42-.86a.51.51,0,0,1-.34-.23.48.48,0,0,1-.05-.42s5.52-17.62,6.62-21.15a31.26,31.26,0,0,1,2.93-6.52.5.5,0,0,1,.62-.2l5.62,2.4a.48.48,0,0,1,.28.34.5.5,0,0,1-.09.44c-.05.06-4.93,6.08-5.57,12-.67,6.19-3.93,13.56-4.07,13.87A.49.49,0,0,1,409.16,205.65Zm-4.77-1.77,4.46.72c.66-1.56,3.27-7.94,3.83-13.23s4.16-10.42,5.39-12l-4.62-2a31.77,31.77,0,0,0-2.6,5.92C409.86,186.44,405.34,200.87,404.39,203.88Z" style="fill:#263238"></path><circle cx="389.55" cy="204.67" r="1.37" style="fill:#263238"></circle><path d="M389.55,206.54a1.87,1.87,0,1,1,1.87-1.87A1.86,1.86,0,0,1,389.55,206.54Zm0-2.74a.87.87,0,1,0,.87.87A.87.87,0,0,0,389.55,203.8Z" style="fill:#263238"></path><circle cx="403.17" cy="191.08" r="1.37" style="fill:#263238"></circle><path d="M403.17,193a1.87,1.87,0,1,1,1.87-1.87A1.87,1.87,0,0,1,403.17,193Zm0-2.74a.87.87,0,1,0,.87.87A.87.87,0,0,0,403.17,190.21Z" style="fill:#263238"></path><circle cx="409.76" cy="193.9" r="1.37" style="fill:#263238"></circle><path d="M409.76,195.77a1.87,1.87,0,1,1,1.87-1.87A1.87,1.87,0,0,1,409.76,195.77Zm0-2.74a.87.87,0,1,0,.87.87A.87.87,0,0,0,409.76,193Z" style="fill:#263238"></path><path d="M392,213.06h-.1a.48.48,0,0,1-.39-.58c.78-4.11,2.81-13.73,4.6-14.33.9-.31,6.68,1.39,20.64,5.63,10.25,3.12,20.85,6.34,24.15,6.8,2.2.31,3.61.05,3.87-.7s-.82-2.5-2.36-3.43a33.51,33.51,0,0,0-7.55-2.79.5.5,0,0,1,.23-1,33.9,33.9,0,0,1,7.83,2.9c1.79,1.08,3.33,3.1,2.79,4.62-.31.89-1.42,1.85-4.94,1.36s-14-3.7-24.31-6.83c-8.92-2.71-19-5.79-20.07-5.63-.87.42-2.72,7.37-3.9,13.55A.51.51,0,0,1,392,213.06Z" style="fill:#92E3A9"></path><path d="M440.4,222.72c-2.89,0-27.1-6.53-41.68-10.53a.5.5,0,0,1-.34-.62.49.49,0,0,1,.61-.34c15.55,4.26,39.13,10.53,41.23,10.53h0c1-.92,5.32-11.45,7.12-16.48,1.43-4,1.61-5.85,0-9.6-1.34-3.12-21.18-12.68-28.71-16.1a.51.51,0,0,1-.25-.67.5.5,0,0,1,.67-.24c2.8,1.27,27.47,12.57,29.21,16.61s1.51,6.12,0,10.33c-.06.16-6,16.26-7.65,17.08A.66.66,0,0,1,440.4,222.72Zm-.06-.46h0Z" style="fill:#92E3A9"></path><path d="M436.13,222.45H436l-7-1.62a5.58,5.58,0,0,1-.78.2c-3.18.57-29.27-7-32.23-7.88a.5.5,0,0,1-.34-.61.49.49,0,0,1,.59-.36l32.69,7.6c2.64-1.08,5.11-4.65,7-7.76,2.16-3.51,4.59-4.34,5.07-4.47a9.71,9.71,0,0,0-.91-5.26c-1-2.1-19.94-9.95-31.66-14.41a.5.5,0,1,1,.35-.93c3.15,1.19,30.76,11.75,32.22,14.92a10.71,10.71,0,0,1,1,5.58,10.13,10.13,0,0,0,5.38-2.37c.29-.26.29-.45.26-.59-.34-1.54-5.81-3.78-9.18-4.82a.5.5,0,1,1,.3-1c1.55.48,9.3,3,9.86,5.57a1.55,1.55,0,0,1-.57,1.55,11.15,11.15,0,0,1-6.17,2.64,23.74,23.74,0,0,1-.63,2.74c-1,3.32-4.61,10.66-4.77,11A.49.49,0,0,1,436.13,222.45Zm-5.66-2.33,5.39,1.25a92.85,92.85,0,0,0,4.53-10.44c.22-.79.41-1.54.54-2.27a9.29,9.29,0,0,0-4.07,3.88C435,215.52,432.89,218.6,430.47,220.12Z" style="fill:#92E3A9"></path><path d="M404.84,200.54h-.1a.51.51,0,0,1-.4-.59c.13-.66,3.23-16.37,8.5-23.52a.51.51,0,0,1,.7-.1.5.5,0,0,1,.1.7c-5.13,7-8.28,22.95-8.31,23.11A.51.51,0,0,1,404.84,200.54Z" style="fill:#92E3A9"></path><path d="M440.42,222.74a21.37,21.37,0,0,1-4.41-.3.5.5,0,0,1-.36-.61.49.49,0,0,1,.6-.36,21.55,21.55,0,0,0,4.17.27c2.21,0,4.05-6.12,5.27-10.17.28-.95.55-1.84.8-2.58,1.42-4.26.47-7.74-.29-10.53-.52-1.88-18.57-10.62-35.3-17.89a.5.5,0,1,1,.4-.92c5.83,2.54,35,15.35,35.86,18.55.8,2.92,1.79,6.56.28,11.1-.25.74-.51,1.62-.8,2.56C445.19,216.71,443.38,222.74,440.42,222.74Z" style="fill:#92E3A9"></path><path d="M440.92,219.1c-9.37,0-26.73-6.6-27.5-6.9a.5.5,0,1,1,.35-.93c.2.07,20,7.6,28.59,6.77a.5.5,0,1,1,.1,1C442,219.08,441.46,219.1,440.92,219.1Z" style="fill:#92E3A9"></path><path d="M441.56,214.28c-3.11,0-8.45-.61-16.77-3.34a.5.5,0,0,1,.31-.95c14.33,4.71,19.66,3,19.7,2.95a.51.51,0,0,1,.64.31.5.5,0,0,1-.3.64A12,12,0,0,1,441.56,214.28Z" style="fill:#92E3A9"></path><path d="M394.74,202.7s-22-4.18-27.71-5c0,0-1.43-3.05-1.69-1s9.41,7.06,13.33,7.58,15,2.53,15,2.53Z" style="fill:#949494"></path><path d="M393.7,207.39h-.09c-.11,0-11.14-2-15-2.52s-14.08-5.53-13.76-8.14c0-.26.13-1.06.77-1.16s1.14.49,1.76,1.72c6.08.86,27.25,4.89,27.47,4.93a.52.52,0,0,1,.32.22.5.5,0,0,1,.07.39L394.18,207A.5.5,0,0,1,393.7,207.39Zm-27-9.26c2.36,2.08,8.78,5.3,12,5.74,3.43.45,12.44,2.06,14.59,2.44l.8-3.21c-3.36-.64-22-4.16-27.17-4.87A.56.56,0,0,1,366.72,198.13Zm-.87-1.4s0,.07,0,.11c0,.31.28.74.84,1.25a.67.67,0,0,1-.09-.14A7.11,7.11,0,0,0,365.85,196.73Z" style="fill:#263238"></path><path d="M358.67,193.55a143.8,143.8,0,0,0,11.5,10.72c5,3.92,17,8.63,20.13,10.46a30.22,30.22,0,0,1,5.49,4.18s1.57-6.8-1.05-8.36-12.48-4.39-16.73-7.32-13.23-8-18.25-16.55-6.85-24.24-6.32-26.07-1.57-1-3.4,2.88S350.82,182.57,358.67,193.55Z" style="fill:#949494"></path><path d="M395.79,219.41a.5.5,0,0,1-.35-.14,29.75,29.75,0,0,0-5.39-4.11c-1-.59-3-1.51-5.36-2.58-4.83-2.21-11.45-5.24-14.83-7.92a143,143,0,0,1-11.55-10.76l-.05-.06c-7.66-10.72-10.73-26.16-8.67-30.56,1.26-2.72,2.9-4.43,3.89-4.05.24.08.76.41.44,1.52-.43,1.51,1.26,17.13,6.27,25.67,4.27,7.28,11.39,12,16.1,15.06l2,1.33c2.5,1.73,7.13,3.47,10.85,4.87a45.82,45.82,0,0,1,5.85,2.44c2.84,1.7,1.45,8.17,1.28,8.9a.5.5,0,0,1-.35.37A.34.34,0,0,1,395.79,219.41Zm-36.74-26.18a142.78,142.78,0,0,0,11.43,10.65c3.29,2.6,9.84,5.6,14.63,7.79,2.36,1.08,4.39,2,5.44,2.63a30,30,0,0,1,4.92,3.63c.37-2.17.65-6-1-7a48.64,48.64,0,0,0-5.69-2.36c-3.77-1.41-8.46-3.18-11.07-5-.58-.4-1.25-.84-2-1.33-4.79-3.15-12-7.91-16.41-15.38-5.05-8.6-6.94-24.46-6.37-26.45a1.73,1.73,0,0,0,.05-.24c-.45.24-1.47,1.22-2.52,3.46C348.8,167.33,351.25,182.29,359.05,193.23Zm-6-33.18h0Z" style="fill:#263238"></path><polygon points="371.25 198.09 367.82 204.53 369.39 205.56 373.06 198.54 371.25 198.09" style="fill:#949494"></polygon><path d="M369.39,206.07a.46.46,0,0,1-.27-.09l-1.58-1a.5.5,0,0,1-.17-.65l3.44-6.44a.49.49,0,0,1,.56-.25l1.81.44a.53.53,0,0,1,.34.28.52.52,0,0,1,0,.44l-3.67,7a.54.54,0,0,1-.32.25Zm-.92-1.71.74.49,3.11-6-.81-.2Z" style="fill:#263238"></path><path d="M368.87,197.5s-6.29,1.12-8.25,1.26-12.88-1.82-13.3-1,2.38,3.78,6.58,4.48,12.87,0,12.87,0Z" style="fill:#949494"></path><path d="M359.12,203.08a35,35,0,0,1-5.31-.32c-3.59-.6-6.16-2.74-6.83-4.06a1.22,1.22,0,0,1-.11-1.14c.35-.69,1.69-.66,8.46.19a47.83,47.83,0,0,0,5.25.51c1.91-.13,8.14-1.24,8.21-1.25a.52.52,0,0,1,.48.18.5.5,0,0,1,.06.51l-2.1,4.76a.48.48,0,0,1-.42.3C366.58,202.78,362.85,203.08,359.12,203.08Zm-11.34-5c.19.68,2.45,3,6.2,3.67s10.91.13,12.46,0l1.6-3.63c-1.83.31-5.86,1-7.39,1.1a44.76,44.76,0,0,1-5.45-.52A50.66,50.66,0,0,0,347.78,198.1Z" style="fill:#263238"></path><polygon points="369.12 196.27 365.69 202.71 367.27 203.75 370.94 196.72 369.12 196.27" style="fill:#949494"></polygon><path d="M367.27,204.25a.44.44,0,0,1-.27-.09l-1.58-1a.49.49,0,0,1-.17-.65l3.43-6.44a.5.5,0,0,1,.56-.25l1.82.44a.51.51,0,0,1,.32.72l-3.67,7a.52.52,0,0,1-.31.25Zm-.92-1.71.73.48,3.12-6-.82-.2Z" style="fill:#263238"></path></g><g id="freepik--Muzzle--inject-77"><path d="M141.91,177.33a1.2,1.2,0,0,1-.45-.09,1.13,1.13,0,0,1-.6-1.49c6.27-14.69,35.35-39.9,36.59-41a1.13,1.13,0,0,1,1.48,1.72c-.29.26-29.91,25.94-36,40.14A1.13,1.13,0,0,1,141.91,177.33Z" style="fill:#92E3A9"></path><path d="M141.91,177.83a1.61,1.61,0,0,1-1.52-1,1.64,1.64,0,0,1,0-1.25c6.32-14.8,35.48-40.08,36.72-41.15a1.65,1.65,0,0,1,2.31.17,1.64,1.64,0,0,1-.17,2.31c-.3.26-29.81,25.81-35.85,40A1.63,1.63,0,0,1,141.91,177.83ZM178.19,135a.62.62,0,0,0-.41.16c-1.24,1.06-30.23,26.19-36.46,40.78a.64.64,0,0,0,0,.49.62.62,0,0,0,.34.35.63.63,0,0,0,.83-.34c6.13-14.35,35.82-40.06,36.12-40.32a.64.64,0,0,0-.37-1.12Z" style="fill:#263238"></path><path d="M138,189a1.14,1.14,0,0,1-.48-2.18c.12-.05,11.35-5.24,17.84-12.83s24-36.41,24.22-36.7a1.14,1.14,0,0,1,1.95,1.18c-.72,1.19-17.73,29.13-24.44,37s-18.14,13.21-18.62,13.43A1.12,1.12,0,0,1,138,189Z" style="fill:#92E3A9"></path><path d="M138,189.49a1.64,1.64,0,0,1-.68-3.13c.11-.05,11.26-5.22,17.66-12.71S178.4,138.21,179.12,137a1.64,1.64,0,1,1,2.8,1.69c-.72,1.19-17.69,29.1-24.48,37.06s-18.31,13.34-18.79,13.56A1.6,1.6,0,0,1,138,189.49Zm42.56-52.26a.64.64,0,0,0-.55.31c-.73,1.19-17.76,29.14-24.27,36.76s-17.89,12.92-18,13a.65.65,0,0,0-.33.36.61.61,0,0,0,0,.48.65.65,0,0,0,.84.32c.48-.22,11.7-5.4,18.45-13.3s24.21-36.64,24.39-36.93a.63.63,0,0,0-.21-.87A.6.6,0,0,0,180.53,137.23Z" style="fill:#263238"></path><path d="M164.56,160.75a1.11,1.11,0,0,1-.5-.12,1.14,1.14,0,0,1-.51-1.53c3.45-6.91,16.3-24.07,16.85-24.8a1.14,1.14,0,1,1,1.82,1.37c-.13.17-13.28,17.72-16.64,24.45A1.14,1.14,0,0,1,164.56,160.75Z" style="fill:#92E3A9"></path><path d="M164.56,161.25a1.7,1.7,0,0,1-.73-.17,1.64,1.64,0,0,1-.73-2.2c3.51-7,16.77-24.7,16.9-24.88a1.64,1.64,0,0,1,2.62,2c-.54.72-13.3,17.78-16.59,24.37A1.63,1.63,0,0,1,164.56,161.25Zm16.75-26.9a.66.66,0,0,0-.51.25c-.13.18-13.34,17.79-16.81,24.73a.64.64,0,0,0,.29.85.65.65,0,0,0,.85-.28c3.34-6.68,16.15-23.81,16.69-24.53a.68.68,0,0,0,.12-.48.64.64,0,0,0-.25-.42A.66.66,0,0,0,181.31,134.35Z" style="fill:#263238"></path><path d="M179.83,153.2a1.25,1.25,0,0,1-.32,0l-6.73-2a1.14,1.14,0,1,1,.64-2.18l6.73,2a1.12,1.12,0,0,1,.77,1.41A1.13,1.13,0,0,1,179.83,153.2Z" style="fill:#92E3A9"></path><path d="M179.83,153.7a1.83,1.83,0,0,1-.46-.07l-6.73-2a1.63,1.63,0,0,1-1.11-2,1.63,1.63,0,0,1,2-1.11l6.73,2a1.63,1.63,0,0,1,1,.78,1.61,1.61,0,0,1,.13,1.25A1.65,1.65,0,0,1,179.83,153.7Zm-6.73-4.25a.64.64,0,0,0-.61.46.62.62,0,0,0,0,.48.65.65,0,0,0,.38.31l6.73,2a.64.64,0,0,0,.74-.92.6.6,0,0,0-.38-.3l-6.73-2Z" style="fill:#263238"></path><path d="M146.45,136.53H145a20.52,20.52,0,0,1-5.72-1.11.49.49,0,0,1-.32-.59l2-8.34v0a4.34,4.34,0,0,1,1.62-2.37,1.69,1.69,0,0,1,1.32-.13,25.26,25.26,0,0,0,2.61.47c2.79.41,3.92.61,3.92,1.4,0,.39-.28,8.22-.81,9.46S148.12,136.53,146.45,136.53ZM140,134.61a19.15,19.15,0,0,0,5,.91h.83c1.93,0,2.62,0,2.88-.62.38-.88.7-7.49.73-8.89a18.87,18.87,0,0,0-3.06-.59,24.64,24.64,0,0,1-2.76-.51.67.67,0,0,0-.55.06,3.45,3.45,0,0,0-1.14,1.76Z" style="fill:#263238"></path><path d="M183,129.84s-21.32-2.32-29-2.78-15.14-.31-19.61-1.39S124,123.2,124,123.2s-15.29,1.7-19.46,2.63-7.72.77-7,2.31,7,2.32,10.35,3.09,8.49,1.08,13.59,1.39,11.74,1.39,15.91,2,14.2-.93,21.93-.16,17.91,2.78,18.68,2.94l2.47.46Z" style="fill:#5c5c5c"></path><path d="M180.53,138.37h-.09L178,137.9c-.11,0-10.74-2.14-18.64-2.93a91.51,91.51,0,0,0-13.24.08,53.29,53.29,0,0,1-8.72.07l-1.93-.29c-4.05-.61-9.59-1.45-13.93-1.71-5-.31-10.24-.62-13.67-1.4-.77-.18-1.68-.35-2.64-.53-4.3-.83-7.39-1.51-8-2.82a1.13,1.13,0,0,1,0-1.09c.41-.8,1.74-1,3.93-1.34,1-.16,2.19-.33,3.4-.6,4.15-.92,18.89-2.57,19.51-2.64h.17s5.87,1.39,10.35,2.48c3,.73,7.41.88,12.46,1.06,2.29.08,4.66.17,7.07.31,7.65.46,28.85,2.76,29.06,2.78a.49.49,0,0,1,.36.23.45.45,0,0,1,.06.42L181,138A.49.49,0,0,1,180.53,138.37Zm-26.23-4.62a50.12,50.12,0,0,1,5.12.23c8,.79,18.62,2.92,18.73,2.94l2,.38,2.16-7c-3.52-.38-21.51-2.3-28.41-2.71-2.4-.14-4.76-.23-7-.31-5.11-.18-9.53-.34-12.66-1.09-4.16-1-9.53-2.28-10.26-2.45-1.24.14-15.39,1.73-19.32,2.6-1.25.28-2.43.46-3.47.62-1.34.2-3,.46-3.19.81a.27.27,0,0,0,.05.18c.48,1,4.61,1.76,7.34,2.28,1,.19,1.89.37,2.67.54,3.35.77,8.51,1.08,13.49,1.38,4.41.27,10,1.11,14,1.72l1.93.29a52.06,52.06,0,0,0,8.51-.08C148.66,133.91,151.51,133.75,154.3,133.75Z" style="fill:#263238"></path><path d="M192.05,104.24a156.66,156.66,0,0,0-8,22.55c-2.59,10.57-8,29.53-8.38,31.73a7.76,7.76,0,0,0,.2,3.79l9.78,1.79,9.18-33.32L203,108Z" style="fill:#949494"></path><path d="M185.67,164.6h-.09l-9.78-1.79a.51.51,0,0,1-.38-.32,8.31,8.31,0,0,1-.22-4c.19-1,1.4-5.49,2.93-11.13,1.81-6.63,4.05-14.89,5.46-20.63a156,156,0,0,1,8-22.63.5.5,0,0,1,.62-.27l11,3.79a.5.5,0,0,1,.29.26.46.46,0,0,1,0,.38L195.32,131l-9.17,33.29A.49.49,0,0,1,185.67,164.6Zm-9.39-2.73,9,1.66,9.06-32.88,8-22.31-10.06-3.48a153.82,153.82,0,0,0-7.77,22c-1.41,5.75-3.66,14-5.46,20.65-1.47,5.4-2.74,10.06-2.92,11A7.93,7.93,0,0,0,176.28,161.87Z" style="fill:#263238"></path><path d="M184.57,150.63a2.3,2.3,0,1,1-2.29-2.29A2.3,2.3,0,0,1,184.57,150.63Z" style="fill:#fff"></path><path d="M182.28,153.43a2.8,2.8,0,1,1,2.79-2.8A2.8,2.8,0,0,1,182.28,153.43Zm0-4.59a1.8,1.8,0,1,0,1.79,1.79A1.8,1.8,0,0,0,182.28,148.84Z" style="fill:#263238"></path><path d="M192.25,146.14s-2.79,12.77-3,15.37a27.91,27.91,0,0,1-.6,4.19L199,167.89l8-33.52,8.18-24.54-10-2.79S194.85,128,192.25,146.14Z" style="fill:#949494"></path><path d="M199,168.39h-.1l-10.38-2.19a.5.5,0,0,1-.32-.23.46.46,0,0,1-.06-.38,28.69,28.69,0,0,0,.58-4.11c.2-2.57,2.84-14.68,3-15.41,2.58-18,12.91-39,13-39.25a.51.51,0,0,1,.58-.26l10,2.8a.45.45,0,0,1,.3.24.51.51,0,0,1,0,.4l-8.19,24.54-8,33.48A.5.5,0,0,1,199,168.39Zm-9.78-3.08,9.41,2,7.86-33,8-24.09-9.07-2.54c-1.39,2.89-10.38,22-12.74,38.59a0,0,0,0,1,0,0c0,.13-2.79,12.77-3,15.3A33.52,33.52,0,0,1,189.26,165.31Zm3-19.17h0Z" style="fill:#263238"></path><path d="M199.24,154a2.3,2.3,0,1,1-2.3-2.3A2.3,2.3,0,0,1,199.24,154Z" style="fill:#fff"></path><path d="M196.94,156.82a2.8,2.8,0,1,1,2.8-2.79A2.79,2.79,0,0,1,196.94,156.82Zm0-4.59a1.8,1.8,0,1,0,1.8,1.8A1.8,1.8,0,0,0,196.94,152.23Z" style="fill:#263238"></path><path d="M188.26,158.92a.76.76,0,0,1-.21,0,1,1,0,0,1-.76-1.19c0-.14,3-13.54,6.59-27.17a151.77,151.77,0,0,1,9.25-25.33,1,1,0,1,1,1.79.88,150.59,150.59,0,0,0-9.1,25c-3.55,13.59-6.55,27-6.58,27.11A1,1,0,0,1,188.26,158.92Z" style="fill:#263238"></path><path d="M272.55,136.62c-2.14-6.64-12.43-13.79-16.36-15.65-3.25-1.54-50.54-16.47-52.16-16.47h-1.2a1.14,1.14,0,0,0,0,2.28h1.09c1.82.28,47.49,14.45,51.3,16.26,3.43,1.62,13.29,8.48,15.17,14.29a18.73,18.73,0,0,1,.81,6.26c-2.23-5.07-6.75-9.91-10.8-13.1-2-1.55-8.5-4-17.1-6.95l-.09,0c-8.68-2.93-19.45-6.25-29.8-9.4-4.73-1.44-8.81-2.68-9.31-2.91-2.58-1.18-5.94.23-6.32.39a1.14,1.14,0,0,0,.91,2.09c.77-.34,3.06-1,4.47-.41.61.28,3.54,1.17,9.58,3,7.58,2.31,19.68,6,29.66,9.36,1.1.93,6.95,6,9,11.35a8.14,8.14,0,0,0-5.39.39c-1.17.64-2.65,2.57-4.6,5.63-1.26-.47-2.56-.92-3.9-1.33-12.76-3.93-24.92-8.9-25-8.95a1.13,1.13,0,0,0-1.48.62,1.14,1.14,0,0,0,.62,1.49c.12,0,12.37,5,25.24,9,1.13.35,2.24.73,3.33,1.13-.65,1.06-1.34,2.22-2.08,3.47a15.86,15.86,0,0,0-3.43-1.89c-7.49-2.8-43.88-10-45.42-10.34a1.14,1.14,0,1,0-.44,2.23c.37.07,37.74,7.5,45.06,10.24a13.3,13.3,0,0,1,3.06,1.73c-.08.15-.17.29-.26.44-.57,1-1.17,2-1.8,3.05l-30.47-9.64a1.14,1.14,0,1,0-.69,2.17l30,9.47a83.56,83.56,0,0,1-6.42,9.55c-8.62-1.91-20.73-4.73-30.56-7-20.39-4.76-20.42-4.74-20.92-4.58l-.32.07a13.78,13.78,0,0,0-7.76,4.25c-2.91,3.3-33.5,29.56-33.81,29.82a1.14,1.14,0,0,0-.12,1.61,1.12,1.12,0,0,0,.86.39,1.17,1.17,0,0,0,.74-.27c.71-.61,10.51-9,19.45-16.85a1.13,1.13,0,0,0,.85.56c2.51.25,45.59,4.54,70.72,7-1.82,2.6-3.45,5-4.7,6.78L182,182.48c-15-2.76-28.73-5.2-29.9-5.41a1.15,1.15,0,0,0-1.32.93,1.14,1.14,0,0,0,.17.81l-.63-.07A1.14,1.14,0,1,0,150,181l31.56,3.73c14.11,2.6,29.28,5.49,35.87,7-2.8.78-8.25.65-13.2.53-8-.2-55.56-10.84-56-11a1.14,1.14,0,0,0-.5,2.22c2,.44,48.29,10.8,56.49,11,2.13.05,4.07.09,5.81.09,5.45,0,9-.4,10.61-2.06a29.65,29.65,0,0,0,7.87,1.44,11.81,11.81,0,0,0,4.3-.85l.56-.19a5.09,5.09,0,0,0,1.7-1.25,11.32,11.32,0,0,0,4,.82,6.29,6.29,0,0,0,3.11-.77h.15a11,11,0,0,0,1.3.08,10.53,10.53,0,0,0,4.79-1.23c3.76-1.88,20.85-28.09,21-28.35a24.47,24.47,0,0,0,3.16-12.6A24,24,0,0,0,272.55,136.62Zm-25-9.2c5.67,2,10,3.77,11.41,4.85,5.55,4.36,11.14,11.25,11.32,17-1.78,2.83-3.81,6-5.91,9.33a20.92,20.92,0,0,0-1.58-3l.68-1.34h0a9.24,9.24,0,0,0,3.72-2.47,4.78,4.78,0,0,0,.68-3.72c-.53-2.47-2.76-4.87-4.61-6a48.57,48.57,0,0,0-9.34-4.34C253,133.78,250.05,130.05,247.58,127.42ZM237.39,189a85.35,85.35,0,0,0,4.78-7.13c1.09.09,1.77.14,2,.14a7.67,7.67,0,0,0,2.18-.29c-.67,1.19-1.3,2.28-1.87,3.26a1.13,1.13,0,0,0-.42.71,32.62,32.62,0,0,1-2.48,3.78Zm14.88-38.42c1.61.9,3,1.73,4.09,2.43l-.88,1.76c-2.39.77-4.76,1.47-6.59,2,.82-1,1.41-1.76,1.58-2A17.37,17.37,0,0,0,252.27,150.57Zm2.06-10.4a42.47,42.47,0,0,1,6.87,3.21L257.4,151c-1.22-.77-2.72-1.67-4.48-2.64.45-1.75.91-3.91,1.32-6.58A8.17,8.17,0,0,0,254.33,140.17Zm-7.86,28.41c-2.16-.17-4.31-.44-6.36-.71l-.36,0c1.38-1.66,3.54-4.25,5.58-6.72a12.52,12.52,0,0,1,1.51,6A7.72,7.72,0,0,1,246.47,168.58Zm.69-8.93,1.75-.51c1.78-.53,3.51-1,5.14-1.55l-5,9.89s0,0,0-.07C249.34,165.46,248.61,162.66,247.16,159.65Zm-7.34,10.48c1.86.24,3.81.49,5.78.66-.46,1-1,2.17-1.66,3.38-1.07-.75-2.38-1.63-4-2.65-.74-.47-1.82-1.11-2.94-1.75l.39,0Zm8.62,7.75a9.38,9.38,0,0,0-1.36-1.35l2.78-5.53c.78,0,1.57,0,2.35-.06C250.91,173.36,249.64,175.71,248.44,177.88Zm2.57-9.17,6.07-12.08c1-.34,2-.67,2.95-1l.13.16c-2,3.95-4.36,8.41-6.68,12.76C252.67,168.63,251.84,168.68,251,168.71Zm9.5-15.69-1.19-.83,3.77-7.51a7.87,7.87,0,0,1,2.59,3.83,2.49,2.49,0,0,1-.34,2C264.88,151.19,263,152.09,260.51,153Zm-21.78,20.42c1.47.93,2.88,1.89,4.12,2.76-.61,1.08-1.24,2.18-1.9,3.27-2.4-.21-6-.55-10.54-1,1.67-2.34,3.4-4.75,5-7C236.7,172.21,237.94,172.94,238.73,173.44Zm5.86,4.24a1.13,1.13,0,0,0,.43.41,1.16,1.16,0,0,0,.51.12h0a9.67,9.67,0,0,1,1,.89,3.69,3.69,0,0,1-2.41.63l-.67,0C243.85,179,244.23,178.35,244.59,177.68Zm10.36-7c.66-.11,1.3-.25,1.94-.41-4,6.11-7.4,11.21-8.91,13.12C250.12,179.61,252.6,175.06,255,170.64Zm2.78-3c-.45.15-.91.26-1.38.38,2-3.8,3.86-7.35,5.23-10,.28.52.57,1.09.86,1.78a12,12,0,0,1,.44,1.19c-1.34,2.1-2.7,4.2-4,6.24C258.51,167.34,258.13,167.48,257.73,167.62Zm-10.65-28.26c1.07-.59,2.89-.45,4.93.08a7,7,0,0,1,0,1.94c-.36,2.34-.75,4.25-1.14,5.82-2.17-1.12-4.63-2.28-7.31-3.36C245,141.52,246.32,139.77,247.08,139.36Zm-4.77,6.44a84.1,84.1,0,0,1,7.93,3.67,15.73,15.73,0,0,1-1.67,4c-.21.32-1.31,1.69-2.84,3.55-.21-.34-.41-.69-.64-1a30.77,30.77,0,0,0-5.22-6.14C240.69,148.47,241.52,147.09,242.31,145.8ZM238.6,152l.08-.14a30.31,30.31,0,0,1,5.15,6.44,7.49,7.49,0,0,0-1,.39c-.89.44-3.7,4-7.08,8.54-1.49-.28-3.56-.71-6-1.25A143.51,143.51,0,0,0,238.6,152Zm-82,19.22c6.15-5.39,11.53-10.21,12.72-11.56a11.59,11.59,0,0,1,6.53-3.53l.29-.06c1.42.23,10.44,2.33,20,4.56s20.69,4.83,29,6.68a1.36,1.36,0,0,1-.2.11c-3.6,1.39-34.33-2.38-54.1-5.25a1.14,1.14,0,0,0-.33,2.25c5.1.74,49.93,7.17,55.25,5.12A6.9,6.9,0,0,0,228,168l2.74.59a1.09,1.09,0,0,0,.47.55l2.26,1.27c-1.86,2.56-3.79,5.29-5.62,7.88C208.63,176.39,176.78,173.24,156.64,171.23Zm72.26,9.39c4.37.42,8.07.77,10.73,1a80.42,80.42,0,0,1-4.86,7.06l-10.64-1.24C225.45,185.53,227.11,183.16,228.9,180.62Zm-8.7,8.66-.49.7c-1.54-.4-4-.95-7.05-1.59Zm12.43,1.56-.58.2c-2.18.75-3.81,1.3-10.08-.42l.71-1.05,10.12,1.18Zm14.79-2.21a8.6,8.6,0,0,1-3.22,1c.5-.74,1.09-1.67,1.73-2.73a21.38,21.38,0,0,0,2.39-.73c.89-.33,5-6.08,12.12-17.14a10.91,10.91,0,0,0,3.3-2.16C258.39,174.74,249.37,187.65,247.42,188.63Zm20.09-27.52c-.4.64-1.28,2-2.46,3.75a6.06,6.06,0,0,0,.28-3.49l4.64-7.31A19.89,19.89,0,0,1,267.51,161.11Z" style="fill:#92E3A9"></path><path d="M210,195.16c-1.82,0-3.87,0-5.82-.09-8.24-.2-54.62-10.57-56.59-11a1.66,1.66,0,0,1-1-.72,1.63,1.63,0,0,1-.21-1.24,1.66,1.66,0,0,1,.72-1,1.68,1.68,0,0,1,1.24-.21l.66.15a1.64,1.64,0,0,1,1.25-2.78,1.73,1.73,0,0,1,0-.32,1.68,1.68,0,0,1,.32-.72c-7,6.05-13.45,11.63-14.9,12.88a1.66,1.66,0,0,1-2.33-.16,1.57,1.57,0,0,1-.39-1.19,1.62,1.62,0,0,1,.56-1.12c.31-.26,30.9-26.52,33.76-29.77a14.3,14.3,0,0,1,8-4.41l.29-.06c.64-.21.66-.22,21.18,4.57,9.66,2.26,21.65,5.06,30.25,7a79.78,79.78,0,0,0,5.86-8.7l-29.36-9.28a1.67,1.67,0,0,1-1-.81,1.6,1.6,0,0,1-.1-1.25,1.62,1.62,0,0,1,.8-1,1.6,1.6,0,0,1,1.25-.1l30.1,9.51,1.59-2.7,0,0a12.05,12.05,0,0,0-2.58-1.4c-7.29-2.73-44.61-10.15-45-10.22a1.65,1.65,0,0,1-1.29-1.93,1.66,1.66,0,0,1,.7-1,1.62,1.62,0,0,1,1.23-.24c1.54.3,38,7.55,45.49,10.36a15.16,15.16,0,0,1,3.1,1.65l1.49-2.5c-1-.36-1.89-.65-2.73-.91-12.69-3.91-24.77-8.82-25.28-9a1.64,1.64,0,1,1,1.24-3c.51.21,12.49,5.08,25,8.93,1.11.34,2.27.73,3.55,1.2,2.06-3.2,3.43-4.84,4.56-5.46a7.81,7.81,0,0,1,4.82-.59c-2.17-4.79-7.19-9.24-8.41-10.27-10-3.36-22.23-7.09-29.55-9.32-6.23-1.89-9-2.75-9.65-3-1.24-.56-3.4.13-4.06.41a1.64,1.64,0,0,1-1.31-3c.4-.17,3.94-1.65,6.73-.39.47.22,4.93,1.58,9.24,2.89,10.32,3.14,21.08,6.46,29.82,9.4l.1,0c9.77,3.29,15.41,5.59,17.24,7a39.92,39.92,0,0,1,9.94,11.28,16.45,16.45,0,0,0-.74-3.9c-1.82-5.66-11.53-12.39-14.9-14-3.8-1.8-49.35-15.93-51.17-16.22l-1,0a1.64,1.64,0,0,1,0-3.28H204c1.63,0,49.12,15,52.38,16.52,4,1.89,14.43,9.16,16.62,15.94h0a24.56,24.56,0,0,1,.07,13.32,25,25,0,0,1-3.23,12.8c-.17.26-17.3,26.57-21.21,28.53a11.13,11.13,0,0,1-5,1.28c-.54,0-1,0-1.34-.08a6.71,6.71,0,0,1-3.22.76,11.53,11.53,0,0,1-3.91-.74,5.12,5.12,0,0,1-1.66,1.15l-.56.18a12.33,12.33,0,0,1-4.46.88h0a29.93,29.93,0,0,1-7.73-1.38C218.86,194.82,215.22,195.16,210,195.16ZM148,181.82a.67.67,0,0,0-.33.1.58.58,0,0,0-.28.4.62.62,0,0,0,.08.48.65.65,0,0,0,.4.28c2,.44,48.25,10.79,56.39,11,1.95.05,4,.09,5.8.09,5,0,8.68-.32,10.25-1.91a.5.5,0,0,1,.49-.13,29.6,29.6,0,0,0,7.73,1.42h0a11.4,11.4,0,0,0,4.14-.82l.56-.19a4.59,4.59,0,0,0,1.51-1.14.51.51,0,0,1,.54-.11,10.72,10.72,0,0,0,3.84.79,5.72,5.72,0,0,0,2.86-.71.51.51,0,0,1,.3-.06h.15a10.21,10.21,0,0,0,1.25.08,10,10,0,0,0,4.57-1.18c3.4-1.7,19.21-25.64,20.81-28.17a24,24,0,0,0,3.08-12.33.51.51,0,0,1,0-.13,23.61,23.61,0,0,0,0-12.81h0c-2.1-6.49-12.23-13.51-16.1-15.35-3-1.42-50.11-16.31-52-16.42h-1.19a.64.64,0,0,0,0,1.28h1.09c1.9.29,47.7,14.5,51.51,16.31,3.49,1.65,13.51,8.63,15.43,14.58a19.12,19.12,0,0,1,.84,6.43.49.49,0,0,1-.4.48.5.5,0,0,1-.55-.29c-1.91-4.34-5.9-9.16-10.66-12.9-1.72-1.35-7.42-3.66-16.95-6.88-8.82-3-19.56-6.28-29.88-9.42-5.48-1.67-8.86-2.71-9.37-2.94-2.39-1.08-5.55.24-5.91.4a.64.64,0,0,0,.51,1.17s3-1.27,4.87-.41c.58.27,3.67,1.21,9.53,3,7.35,2.24,19.66,6,29.67,9.36a.56.56,0,0,1,.17.09c1.16,1,7.05,6.13,9.11,11.55a.53.53,0,0,1-.08.5.52.52,0,0,1-.48.17,7.69,7.69,0,0,0-5.06.33c-1,.55-2.36,2.24-4.42,5.47a.49.49,0,0,1-.59.2c-1.41-.53-2.68-1-3.87-1.33-12.56-3.86-24.58-8.75-25.08-8.95a.63.63,0,1,0-.49,1.17c.51.21,12.54,5.11,25.19,9,1,.31,2.09.68,3.36,1.14a.51.51,0,0,1,.26.73c-.65,1.06-1.34,2.21-2.08,3.47a.52.52,0,0,1-.33.23.49.49,0,0,1-.39-.08,15.26,15.26,0,0,0-3.32-1.83c-7.43-2.79-43.79-10-45.34-10.32a.64.64,0,0,0-.48.09.68.68,0,0,0-.27.41.65.65,0,0,0,.5.75c.38.07,37.78,7.5,45.14,10.27A13.18,13.18,0,0,1,237.2,150a.49.49,0,0,1,.13.65l-.26.45c-.57,1-1.17,2-1.8,3a.49.49,0,0,1-.58.22l-30.47-9.63a.65.65,0,0,0-.49,0,.63.63,0,0,0-.31.37.64.64,0,0,0,0,.49.62.62,0,0,0,.38.31l29.95,9.48a.46.46,0,0,1,.32.3.47.47,0,0,1,0,.43,78.85,78.85,0,0,1-6.47,9.61.53.53,0,0,1-.49.17c-8.63-1.91-20.79-4.75-30.56-7-18.36-4.29-20.29-4.72-20.65-4.59l-.31.07a13.41,13.41,0,0,0-7.56,4.1c-3,3.36-33.55,29.61-33.86,29.87a.67.67,0,0,0-.22.44.61.61,0,0,0,.16.46.56.56,0,0,0,.89.07c1.79-1.54,11-9.47,19.45-16.84a.47.47,0,0,1,.41-.12.5.5,0,0,1,.35.23.64.64,0,0,0,.47.32c4.68.47,46.33,4.62,70.72,7a.51.51,0,0,1,.4.29.5.5,0,0,1,0,.5c-1.82,2.59-3.45,5-4.7,6.77a.5.5,0,0,1-.47.21L181.91,183c-15.46-2.85-29.78-5.39-29.93-5.41a.63.63,0,0,0-.74.51.69.69,0,0,0,.1.46.5.5,0,0,1-.47.77l-.64-.08a.64.64,0,0,0-.58,1,.67.67,0,0,0,.43.24l31.56,3.73c18.32,3.38,30.4,5.75,35.92,7.05a.51.51,0,0,1,.39.48.5.5,0,0,1-.37.49c-2.87.8-8.43.67-13.34.55-8-.2-55.66-10.85-56.14-11Zm4.59,0c11.89,2.62,45.21,9.84,51.73,10a99,99,0,0,0,10.59-.1c-6.26-1.37-17.46-3.54-33.37-6.48Zm-.66-5.24a1.23,1.23,0,0,1,.27,0c.15,0,14.48,2.56,29.91,5.41l39.35,4.63c1.11-1.61,2.5-3.62,4-5.82-24.5-2.36-65.25-6.42-69.86-6.89a1.54,1.54,0,0,1-.85-.35l-3.69,3.22A1.69,1.69,0,0,1,151.88,176.56Zm76.56,15.69a25.65,25.65,0,0,1-6.6-1.15.47.47,0,0,1-.33-.3.48.48,0,0,1,.05-.45c.2-.31.44-.67.71-1.06a.47.47,0,0,1,.47-.22l10.12,1.18a.5.5,0,0,1,.43.39.51.51,0,0,1-.23.53,1.62,1.62,0,0,1-.24.14h0l-.58.19A10.43,10.43,0,0,1,228.44,192.25Zm-5.66-1.93c4.32,1.14,6.19,1.08,7.77.67l-7.63-.89Zm-3.07.16h-.12c-1.45-.38-3.82-.92-7-1.59a.5.5,0,0,1-.39-.57.52.52,0,0,1,.56-.42l7.54.89a.49.49,0,0,1,.39.29.51.51,0,0,1,0,.49l-.48.71A.53.53,0,0,1,219.71,190.48Zm24.49-.4a.5.5,0,0,1-.43-.24.52.52,0,0,1,0-.54c.49-.72,1.07-1.63,1.72-2.71a.5.5,0,0,1,.32-.23,17.44,17.44,0,0,0,2.33-.71c.48-.23,2.67-2.75,11.87-16.94a.46.46,0,0,1,.21-.18,10.42,10.42,0,0,0,3.15-2.06.5.5,0,0,1,.77.63c-3.28,4.86-14.16,20.8-16.51,22h0a9.2,9.2,0,0,1-3.4,1Zm2.05-2.8c-.36.6-.7,1.14-1,1.63a8.83,8.83,0,0,0,1.95-.73h0c1.47-.73,8.1-9.85,14.52-19.27-.29.16-.6.32-.93.47-10.8,16.65-11.84,17-12.28,17.21A18,18,0,0,1,246.25,187.28ZM241.54,190h-.06l-4.15-.47a.52.52,0,0,1-.4-.3.5.5,0,0,1,.06-.5,84.86,84.86,0,0,0,4.75-7.09.51.51,0,0,1,.47-.24c1.38.12,1.81.14,1.92.14a7.3,7.3,0,0,0,2-.27.5.5,0,0,1,.58.72c-.67,1.2-1.3,2.3-1.88,3.27a.41.41,0,0,1-.12.14.59.59,0,0,0-.23.39.48.48,0,0,1-.07.18,30.94,30.94,0,0,1-2.54,3.86A.48.48,0,0,1,241.54,190Zm-3.23-1.37,3,.34a36.69,36.69,0,0,0,2.23-3.44,1.65,1.65,0,0,1,.5-.85c.41-.68.83-1.42,1.29-2.22a7.93,7.93,0,0,1-1.21.08c-.11,0-.42,0-1.69-.12C241,184.73,239.59,186.85,238.31,188.59Zm-3.54.6h-.05l-10.65-1.24a.52.52,0,0,1-.4-.29.51.51,0,0,1,.05-.49c1.32-1.92,3-4.29,4.77-6.82a.48.48,0,0,1,.45-.21l10.73,1a.51.51,0,0,1,.41.28.53.53,0,0,1,0,.49,83,83,0,0,1-4.88,7.1A.53.53,0,0,1,234.77,189.19ZM225,187.05l9.54,1.11c1.19-1.52,2.67-3.66,4.22-6.1l-9.63-.91C227.62,183.3,226.2,185.32,225,187.05Zm23-3.2a.51.51,0,0,1-.28-.09.5.5,0,0,1-.15-.66c1.88-3.29,4.23-7.56,7-12.7a.53.53,0,0,1,.36-.26c.62-.1,1.25-.23,1.9-.39a.48.48,0,0,1,.53.19.5.5,0,0,1,0,.56c-3.13,4.8-7.22,11-8.93,13.16A.53.53,0,0,1,248,183.85Zm7.3-12.76c-.69,1.29-1.36,2.54-2,3.72q1.17-1.76,2.52-3.82Zm-11.15,9.14-.71,0a.49.49,0,0,1-.4-.26.5.5,0,0,1,0-.49c.38-.66.76-1.33,1.12-2a.53.53,0,0,1,.42-.26.48.48,0,0,1,.44.23.62.62,0,0,0,.23.23c.19.1.45,0,.62.18a9.55,9.55,0,0,1,1,1,.5.5,0,0,1,0,.69A4.15,4.15,0,0,1,244.13,180.23Zm.58-1.74c-.13.25-.27.49-.41.73a4.55,4.55,0,0,0,1.41-.22l-.36-.3a1.8,1.8,0,0,1-.56-.16ZM241,180h0c-2.41-.21-6-.56-10.54-1a.47.47,0,0,1-.41-.29.46.46,0,0,1,0-.49c1.66-2.35,3.39-4.75,5-7a.51.51,0,0,1,.65-.14c1.49.86,2.6,1.52,3.3,2,1.4.89,2.83,1.85,4.13,2.77a.49.49,0,0,1,.15.65c-.6,1.09-1.24,2.19-1.9,3.29A.5.5,0,0,1,241,180Zm-9.63-1.9c3.91.37,7.12.68,9.36.88.52-.87,1-1.74,1.51-2.6-1.19-.84-2.47-1.69-3.72-2.49q-1-.6-2.88-1.71C234.19,174.07,232.74,176.08,231.32,178.07Zm-3.47.67h0c-18.55-1.78-50-4.89-71.21-7a.51.51,0,0,1-.28-.88c7.39-6.48,11.66-10.36,12.68-11.51a12.05,12.05,0,0,1,6.8-3.69l.28-.06a.41.41,0,0,1,.19,0c1.45.24,10.46,2.34,20,4.57l.13,0c9.65,2.25,20.6,4.81,28.89,6.65a.51.51,0,0,1,.12.94,1.52,1.52,0,0,1-.25.13c-4,1.53-37.29-2.75-54.35-5.23a.64.64,0,0,0-.19,1.27c18.45,2.67,50.79,6.77,55,5.15a6.54,6.54,0,0,0,2-1.5.49.49,0,0,1,.46-.13l2.74.59a.5.5,0,0,1,.36.29.57.57,0,0,0,.25.31l2.27,1.27a.51.51,0,0,1,.16.73c-1.7,2.35-3.59,5-5.62,7.88A.52.52,0,0,1,227.85,178.74Zm-70-7.89c21.11,2.1,51.51,5.11,69.77,6.87,1.84-2.62,3.56-5,5.13-7.2-.89-.51-1.56-.88-1.73-1a1.68,1.68,0,0,1-.61-.57l-2.25-.49A7,7,0,0,1,226,170c-5.31,2-47.16-3.88-55.5-5.09a1.64,1.64,0,1,1,.47-3.25c20.71,3,43.82,5.7,51.51,5.55-7.9-1.78-17.61-4-26.29-6.08l-.13,0c-8.92-2.08-18.14-4.23-19.84-4.54l-.2,0a11.12,11.12,0,0,0-6.25,3.37C168.73,161.14,164.73,164.79,157.84,170.85Zm90.6,7.53a.51.51,0,0,1-.39-.19,10.53,10.53,0,0,0-1.3-1.28.51.51,0,0,1-.12-.6l2.78-5.53a.51.51,0,0,1,.45-.28H250c.73,0,1.45,0,2.14-.06a.5.5,0,0,1,.47.73c-1.3,2.42-2.57,4.77-3.77,7a.49.49,0,0,1-.4.26Zm-.74-2c.24.22.46.42.65.61,1-1.76,2-3.62,3-5.54l-1.18,0Zm-3.76-1.74a.47.47,0,0,1-.28-.09c-1.12-.79-2.46-1.67-4-2.63-.64-.41-1.63-1-2.92-1.75a.5.5,0,0,1-.22-.6.52.52,0,0,1,.55-.33l.37,0,2.27.29.14,0c1.87.24,3.79.49,5.76.66a.54.54,0,0,1,.39.25.5.5,0,0,1,0,.46c-.44,1-1,2.14-1.66,3.4a.49.49,0,0,1-.33.25Zm-4.57-4.1.85.53c1.32.84,2.51,1.62,3.54,2.33.41-.78.77-1.52,1.09-2.2-1.74-.17-3.45-.39-5.1-.61l-.14,0ZM251,169.21a.49.49,0,0,1-.42-.24.5.5,0,0,1,0-.49l6.07-12.07a.48.48,0,0,1,.29-.25c1-.34,2-.68,2.93-1a.5.5,0,0,1,.54.14l.1.11a.64.64,0,0,1,.1.61c-2.17,4.22-4.48,8.64-6.68,12.77a.5.5,0,0,1-.38.26c-.75.08-1.57.14-2.51.17ZM257.44,157l-5.6,11.13c.47,0,.91,0,1.33-.1,2-3.77,4.1-7.78,6.09-11.65C258.68,156.63,258.07,156.83,257.44,157Zm-11,12h0c-2.09-.15-4.14-.41-6.4-.7l-.35-.05a.5.5,0,0,1-.32-.81c1.38-1.66,3.54-4.25,5.57-6.71a.5.5,0,0,1,.84.1c1.19,2.56,1.74,4.79,1.55,6.29a8.7,8.7,0,0,1-.38,1.54A.5.5,0,0,1,246.47,169.08Zm-5.75-1.63c1.89.24,3.64.45,5.4.6a6.71,6.71,0,0,0,.22-1,11.11,11.11,0,0,0-1.14-5Zm15.63,1.05a.51.51,0,0,1-.39-.19.52.52,0,0,1-.05-.55c2-3.8,3.85-7.34,5.23-10a.49.49,0,0,1,.44-.27.53.53,0,0,1,.44.26c.34.63.62,1.21.88,1.82a12.35,12.35,0,0,1,.46,1.25.49.49,0,0,1-.06.41c-1.34,2.1-2.7,4.2-4,6.24a.39.39,0,0,1-.23.19c-.36.15-.74.3-1.16.44h0c-.38.13-.79.23-1.19.34l-.22,0Zm5.23-9.43c-1.19,2.3-2.66,5.12-4.25,8.15l.24-.08h0c.34-.11.66-.23,1-.35,1.25-1.94,2.53-3.92,3.8-5.91A9.19,9.19,0,0,0,262,160C261.85,159.66,261.72,159.37,261.58,159.07ZM249.08,168l-.15,0a.5.5,0,0,1-.34-.55c.23-1.86-.46-4.59-1.88-7.54a.48.48,0,0,1,0-.42.51.51,0,0,1,.32-.27l1.75-.52,5.14-1.54a.5.5,0,0,1,.53.15.52.52,0,0,1,.06.55l-5,9.88A.49.49,0,0,1,249.08,168Zm-1.22-8a19.21,19.21,0,0,1,1.7,5.45l3.52-7-4,1.21Zm-12.11,7.77h-.09c-1.43-.27-3.47-.69-6.06-1.25a.49.49,0,0,1-.36-.32.52.52,0,0,1,.07-.48,141.64,141.64,0,0,0,8.86-13.93h0l0-.06a.6.6,0,0,1,.38-.28.5.5,0,0,1,.43.1,30.64,30.64,0,0,1,5.24,6.54.54.54,0,0,1,0,.43.51.51,0,0,1-.31.3,8,8,0,0,0-.94.36c-.4.21-1.84,1.56-6.9,8.4A.48.48,0,0,1,235.75,167.74Zm-5.17-2.07c2,.44,3.71.78,5,1,5.18-7,6.51-8.17,7.06-8.44l.48-.21a29.83,29.83,0,0,0-4.29-5.37A153.25,153.25,0,0,1,230.58,165.67Zm34.47-.31a.46.46,0,0,1-.23-.06.49.49,0,0,1-.23-.63,5.62,5.62,0,0,0,.25-3.21.47.47,0,0,1,.07-.36c1.45-2.28,3-4.71,4.63-7.31a.52.52,0,0,1,.61-.2.51.51,0,0,1,.31.55,20.26,20.26,0,0,1-2.52,7.23h0c-.43.68-1.35,2.09-2.47,3.77A.52.52,0,0,1,265.05,165.36Zm.8-3.88a7.19,7.19,0,0,1,.11,1.11c.5-.76.89-1.37,1.13-1.75h0a17.07,17.07,0,0,0,1.74-4.05Q267.29,159.23,265.85,161.48Zm-1.45-2.41h0a.53.53,0,0,1-.42-.3,21.26,21.26,0,0,0-1.54-2.92.5.5,0,0,1,0-.5l.66-1.3h0a.49.49,0,0,1,.25-.26,8.84,8.84,0,0,0,3.51-2.29,4.34,4.34,0,0,0,.61-3.35c-.49-2.33-2.62-4.6-4.39-5.73a48.27,48.27,0,0,0-9.22-4.28.52.52,0,0,1-.33-.35c-1-3.85-4-7.57-6.26-10a.5.5,0,0,1-.06-.62.52.52,0,0,1,.59-.2c6.46,2.3,10.24,3.91,11.55,4.94,5.59,4.39,11.32,11.46,11.51,17.34a.45.45,0,0,1-.07.28c-1.79,2.84-3.82,6-5.92,9.34A.5.5,0,0,1,264.4,159.07Zm-1-3.52c.36.59.72,1.26,1.07,2,1.89-3,3.72-5.85,5.34-8.43-.28-5.53-5.77-12.22-11.12-16.43-1.09-.85-4.25-2.24-9.42-4.12a24.73,24.73,0,0,1,5.1,8.71,50.82,50.82,0,0,1,9.2,4.31c1.94,1.23,4.27,3.75,4.83,6.36a5.27,5.27,0,0,1-.76,4.11c-.55.83-1.75,1.65-3.77,2.58Zm.1-1.31h0Zm-17.77,3.3h0a.49.49,0,0,1-.39-.24l-.14-.22-.49-.8a29.3,29.3,0,0,0-5.15-6,.5.5,0,0,1-.09-.63c.82-1.39,1.65-2.78,2.45-4.07a.49.49,0,0,1,.61-.21,87.53,87.53,0,0,1,8,3.69.51.51,0,0,1,.25.59,16.24,16.24,0,0,1-1.73,4.16c-.07.11-.3.46-2.87,3.59A.48.48,0,0,1,245.73,157.54Zm-5.22-7.77a30.83,30.83,0,0,1,5,6l.29.45c1.73-2.12,2.24-2.79,2.36-3a14.93,14.93,0,0,0,1.48-3.5c-2.35-1.23-4.74-2.33-7.12-3.3C241.86,147.49,241.18,148.63,240.51,149.77Zm8.38,7.5a.51.51,0,0,1-.42-.22.5.5,0,0,1,0-.59c1.1-1.36,1.45-1.83,1.55-2a16.73,16.73,0,0,0,1.75-4.06.47.47,0,0,1,.29-.31.5.5,0,0,1,.43,0c1.44.81,2.83,1.63,4.11,2.45a.48.48,0,0,1,.18.64l-.88,1.76a.59.59,0,0,1-.3.26c-2.32.74-4.64,1.43-6.6,2A.36.36,0,0,1,248.89,157.27Zm3.67-6a16,16,0,0,1-1.68,3.73c-.09.14-.29.41-.61.81,1.53-.45,3.19-1,4.86-1.49l.58-1.17C254.71,152.56,253.66,151.93,252.56,151.3Zm7.95,2.22a.52.52,0,0,1-.29-.09l-1.18-.82a.51.51,0,0,1-.17-.64l3.78-7.51a.5.5,0,0,1,.35-.27.47.47,0,0,1,.42.12,8.23,8.23,0,0,1,2.75,4.09,3,3,0,0,1-.42,2.38c-.3.45-1.16,1.23-5.06,2.71ZM260,152l.62.43c3.32-1.28,4.15-2,4.34-2.24a2,2,0,0,0,.27-1.61,6.84,6.84,0,0,0-1.95-3.11Zm-2.56-.58a.5.5,0,0,1-.27-.08c-1.39-.88-2.89-1.76-4.45-2.62a.5.5,0,0,1-.24-.57c.49-1.93.93-4.13,1.3-6.53a7.13,7.13,0,0,0,.09-1.47.54.54,0,0,1,.21-.42.51.51,0,0,1,.46-.06,43.45,43.45,0,0,1,6.95,3.25.49.49,0,0,1,.2.65l-3.81,7.57a.48.48,0,0,1-.31.26Zm-3.9-3.39c1.28.71,2.53,1.44,3.7,2.17l3.34-6.65a44.56,44.56,0,0,0-5.72-2.7,6.83,6.83,0,0,1-.09.92C254.38,144.08,254,146.19,253.5,148.06Zm-2.65-.36a.5.5,0,0,1-.23,0c-2.37-1.23-4.81-2.36-7.26-3.35a.49.49,0,0,1-.29-.31.48.48,0,0,1,.05-.42c1.8-2.79,2.95-4.23,3.72-4.65h0c1.09-.6,2.87-.59,5.29,0a.49.49,0,0,1,.37.42,7.59,7.59,0,0,1,0,2.08c-.33,2.13-.71,4.11-1.14,5.86a.51.51,0,0,1-.28.34A.49.49,0,0,1,250.85,147.7Zm-6.56-4.1c2.1.87,4.19,1.83,6.23,2.87.36-1.57.69-3.3,1-5.16a5.93,5.93,0,0,0,0-1.47c-2-.47-3.41-.49-4.22,0h0C246.93,140,246.1,140.85,244.29,143.6Z" style="fill:#263238"></path><path d="M226.58,182.2l-.22,0-68.44-13a1.13,1.13,0,0,1-.9-1.33,1.11,1.11,0,0,1,1.33-.9l68.44,13a1.14,1.14,0,0,1-.21,2.25Z" style="fill:#949494"></path><path d="M226.58,182.7a1.55,1.55,0,0,1-.31,0l-68.44-13a1.63,1.63,0,0,1-1.05-.68,1.59,1.59,0,0,1-.25-1.23,1.63,1.63,0,0,1,.69-1.06,1.59,1.59,0,0,1,1.22-.24l68.44,13a1.68,1.68,0,0,1,1.05.69,1.66,1.66,0,0,1,.25,1.23A1.63,1.63,0,0,1,226.58,182.7Zm-68.45-15.24a.6.6,0,0,0-.35.1.64.64,0,0,0-.27.41.65.65,0,0,0,.5.75l68.45,13a.64.64,0,0,0,.64-1,.6.6,0,0,0-.41-.26l-68.44-13Z" style="fill:#263238"></path><path d="M214.6,111.82s-.6,14-1.59,18-2.4,8.18-2.4,8.18l-4.39-.4,6-18Z" style="fill:#5c5c5c"></path><path d="M210.61,138.46h0l-4.39-.4a.49.49,0,0,1-.38-.22.5.5,0,0,1-.05-.43l6-18,2.39-7.77a.52.52,0,0,1,.57-.35.49.49,0,0,1,.41.52c0,.57-.61,14.06-1.61,18.05s-2.39,8.18-2.4,8.22A.5.5,0,0,1,210.61,138.46Zm-3.71-1.34,3.36.31c.36-1.12,1.45-4.53,2.26-7.77.64-2.56,1.12-9.4,1.38-13.84l-1.21,3.93Z" style="fill:#263238"></path><path d="M170.7,159.51s1,9.58-.2,10.18-22.3-4.33-35.07-4.33-32.57,3.53-42.15,3.53-25.34-2.79-25.34-2.79l-.2-4.19A143.65,143.65,0,0,0,88.5,163.7c10.17,0,31.12-6,49.68-6s14.77.8,14.77.8l.2-1.8S167.51,156.72,170.7,159.51Z" style="fill:#949494"></path><path d="M170.09,170.24a74.4,74.4,0,0,1-8-1.18c-7.46-1.27-18.73-3.2-26.63-3.2-6.82,0-15.49,1-23.88,1.95-7.09.81-13.79,1.58-18.27,1.58-9.51,0-25.27-2.77-25.42-2.8a.52.52,0,0,1-.42-.47l-.2-4.19a.54.54,0,0,1,.17-.4.54.54,0,0,1,.42-.12A143.14,143.14,0,0,0,88.5,163.2c4.28,0,10.52-1.07,17.74-2.32,10-1.72,21.24-3.66,31.94-3.66,9,0,12.75.16,14.36.41l.11-1a.5.5,0,0,1,.5-.44c.59,0,14.59,0,17.88,2.92a.46.46,0,0,1,.17.32c.47,4.53.77,10-.47,10.68A1.56,1.56,0,0,1,170.09,170.24Zm-34.66-5.38c8,0,19.31,1.94,26.8,3.21a63.22,63.22,0,0,0,8.09,1.16c.46-.53.33-5.29-.09-9.46-3-2.26-14.24-2.52-16.64-2.55l-.07.68a.42.42,0,0,1,.24.4c0,.16,0,.56-.71.7a.5.5,0,0,1-.44-.11.57.57,0,0,1-.16-.28c-1.1-.16-4.4-.39-14.27-.39-10.62,0-21.86,1.94-31.77,3.65-7.27,1.25-13.54,2.33-17.91,2.33a143.56,143.56,0,0,1-20.23-1.7l.15,3.17c2.5.43,16.28,2.72,24.86,2.72,4.42,0,11.1-.76,18.16-1.57C119.86,165.86,128.56,164.86,135.43,164.86Z" style="fill:#263238"></path><path d="M167.39,161.58c-3.79,0-12.51-3.58-14.44-4.4a.5.5,0,0,1-.26-.65.49.49,0,0,1,.65-.27c5,2.1,13.42,5.1,14.88,4.2l2.22-1.37a.5.5,0,0,1,.53.85l-2.23,1.37A2.65,2.65,0,0,1,167.39,161.58Z" style="fill:#263238"></path><path d="M152.88,166.79h0a.5.5,0,0,1-.5-.5l.07-7.78a.49.49,0,0,1,.5-.49h0a.5.5,0,0,1,.5.5l-.07,7.77A.5.5,0,0,1,152.88,166.79Z" style="fill:#263238"></path><path d="M102.53,168.61s6.8,13.12,11.28,16.37,13.12,3.4,13.12,3.4,11.59,2.31,15,.92,6.34-6.33,1.7-10.81-7.1-7.1-7.56-8.65a25,25,0,0,1-.62-4.48l-8.19.78s2.63,7.1,4.94,9.88a28.09,28.09,0,0,0,3.71,3.86,38.8,38.8,0,0,0-8,1.08c-2.93.93-8.65-.92-13.59-3.86s-8-8.49-8-8.49Z" style="fill:#5c5c5c"></path><path d="M138.47,190.24a74,74,0,0,1-11.64-1.37c-.24,0-8.77-.19-13.32-3.49s-11.14-16-11.42-16.54a.5.5,0,0,1,0-.49.51.51,0,0,1,.43-.24h3.71a.49.49,0,0,1,.43.25c0,.06,3.09,5.48,7.85,8.31,5.17,3.07,10.59,4.63,13.19,3.82a33.16,33.16,0,0,1,6.94-1.05,38.58,38.58,0,0,1-2.85-3.1c-2.34-2.81-4.92-9.74-5-10a.52.52,0,0,1,0-.44.48.48,0,0,1,.37-.23l8.19-.77a.48.48,0,0,1,.37.11.5.5,0,0,1,.18.36,24.91,24.91,0,0,0,.59,4.36c.44,1.46,3.06,4.2,7.44,8.43,2.57,2.48,2.74,4.89,2.44,6.48a7.21,7.21,0,0,1-4.3,5.15A10.27,10.27,0,0,1,138.47,190.24Zm-35.11-21.13c1.5,2.79,7,12.76,10.74,15.46,4.3,3.11,12.76,3.3,12.84,3.31s11.57,2.28,14.78,1a6.3,6.3,0,0,0,3.7-4.42c.37-1.93-.38-3.85-2.15-5.57-4.61-4.45-7.2-7.18-7.7-8.86a23,23,0,0,1-.61-4.08l-7,.66c.69,1.77,2.78,6.92,4.63,9.13a27.71,27.71,0,0,0,3.63,3.79.52.52,0,0,1,.17.55.51.51,0,0,1-.46.34,37.69,37.69,0,0,0-7.9,1.06c-3.34,1.06-9.44-1.2-14-3.91a25.6,25.6,0,0,1-8.06-8.42Z" style="fill:#263238"></path><path d="M126.47,181.73s-2.47,1.39-1.39,3.87,5.25,3.39,5.25,3.39" style="fill:#949494"></path><path d="M130.33,189.49h-.11c-.18,0-4.43-1-5.6-3.68a3.51,3.51,0,0,1,1.6-4.5.5.5,0,0,1,.5.87,2.55,2.55,0,0,0-1.18,3.22c1,2.21,4.86,3.11,4.9,3.12a.49.49,0,0,1,.38.59A.5.5,0,0,1,130.33,189.49Z" style="fill:#263238"></path><path d="M131.87,175.13a.52.52,0,0,1-.39-.19,1.57,1.57,0,0,1-.26-1.48c.27-.69,1.07-1.13,2.43-1.33l3.09-.47a.5.5,0,1,1,.15,1l-3.09.47c-1.34.2-1.6.59-1.65.7s.12.5.12.5a.51.51,0,0,1-.4.81Z" style="fill:#263238"></path><path d="M108.86,155s.93,5.25.93,5.71-1.08,7.41-.46,8.19,1.08.3,1.39-.93a71.36,71.36,0,0,0,.92-8.5,10.88,10.88,0,0,0-.77-4.32C110.41,154.4,109.48,153.78,108.86,155Z" style="fill:#949494"></path><path d="M109.89,169.79a1.23,1.23,0,0,1-1-.56c-.46-.57-.4-2.45.22-7.43.07-.56.13-1,.13-1.07,0-.35-.57-3.64-.92-5.63a.49.49,0,0,1,0-.31,1.5,1.5,0,0,1,1.26-1,2,2,0,0,1,1.62,1.1,11.12,11.12,0,0,1,.84,4.58,70.19,70.19,0,0,1-.94,8.62c-.16.64-.45,1.52-1.12,1.66A.58.58,0,0,1,109.89,169.79Zm-.5-14.69c.2,1.18.9,5.17.9,5.63,0,.12,0,.39-.13,1.19-.51,4-.65,6.27-.43,6.7a.84.84,0,0,0,.17.17,4.91,4.91,0,0,0,.33-.92,70.49,70.49,0,0,0,.91-8.38,10.44,10.44,0,0,0-.7-4.06,1.15,1.15,0,0,0-.72-.62C109.62,154.82,109.5,154.92,109.39,155.1Z" style="fill:#263238"></path><path d="M113,153.78s-2,.31-.61,1.85,3.86,4.33,4.17,5.56-.78,5.1-1.09,5.72-2.31.31-2.31.31a17.12,17.12,0,0,0,2.78,2.47c1.08.62,1.7.77,1.85,0s1.85-6.18,1.55-7.42a12.7,12.7,0,0,0-1.55-2.93C117.51,158.72,113,153.78,113,153.78Z" style="fill:#949494"></path><path d="M117.3,170.71a3.53,3.53,0,0,1-1.58-.59,16.82,16.82,0,0,1-2.9-2.57.5.5,0,0,1-.07-.57.49.49,0,0,1,.51-.26,3.6,3.6,0,0,0,1.81-.06c.31-.61,1.29-4.32,1-5.35s-3-4.2-4.06-5.34a1.7,1.7,0,0,1-.55-1.68,1.89,1.89,0,0,1,1.47-1,.49.49,0,0,1,.44.15c.76.84,4.54,5,4.87,5.68.09.17.23.38.39.63a8.4,8.4,0,0,1,1.19,2.4c.25,1-.47,3.75-1.23,6.49-.16.55-.27,1-.31,1.15a1.07,1.07,0,0,1-.59.83A1,1,0,0,1,117.3,170.71Zm-2.85-2.92a9.74,9.74,0,0,0,1.77,1.46c.76.44,1,.47,1.08.46a.91.91,0,0,0,0-.12c0-.19.16-.63.32-1.22.43-1.54,1.44-5.15,1.23-6a7,7,0,0,0-1.06-2.1,7,7,0,0,1-.45-.74c-.19-.37-2.43-2.92-4.51-5.22-.19.07-.39.17-.43.28s0,.33.36.68c1.94,2.16,4,4.53,4.28,5.77.35,1.41-.77,5.37-1.12,6.06A1.68,1.68,0,0,1,114.45,167.79Z" style="fill:#263238"></path><path d="M95.89,78s-3.24-1.08-5.71,0S79.52,82.89,78,89.22s-5.4,19.93-1.54,37.69,9.88,25.33,9.88,25.33l9.27,1.54a74.38,74.38,0,0,1-11.43-29.19C81.22,107,84,93.38,85.85,88,88.32,80.88,95.89,78,95.89,78Z" style="fill:#949494"></path><path d="M95.58,154.28H95.5l-9.27-1.54a.55.55,0,0,1-.31-.18c-.25-.32-6.14-7.87-10-25.54-3.67-16.89-.46-29.83,1.27-36.79l.28-1.12c1.46-6,8.45-9.84,12.49-11.61,2.61-1.15,5.93-.06,6.07,0a.52.52,0,0,1,.34.47.49.49,0,0,1-.32.47c-.07,0-7.38,3-9.75,9.74s-4.3,20.62-1.67,36.36a74.45,74.45,0,0,0,11.33,29,.5.5,0,0,1-.4.8Zm-9-2.51,7.92,1.32a77.28,77.28,0,0,1-10.85-28.42c-2.65-15.92-.73-29.8,1.72-36.85,1.9-5.46,6.64-8.5,9-9.71a7.27,7.27,0,0,0-4,.3c-3.12,1.36-10.51,5.15-11.92,10.93l-.28,1.12c-1.7,6.88-4.88,19.68-1.26,36.34C80.42,142.89,85.75,150.63,86.59,151.77Z" style="fill:#263238"></path><path d="M108.86,155s-10.81-2.63-15-4.33-7.57-.77-7.57,1.55,1.55,3.08,3.4,3.86,5.25,1.7,8.5,3.09a60.84,60.84,0,0,0,6.48,2.31l5.1-.77Z" style="fill:#949494"></path><path d="M104.69,162a.3.3,0,0,1-.13,0A62.59,62.59,0,0,1,98,159.65c-1.88-.81-3.8-1.45-5.48-2-1.2-.4-2.23-.75-3-1.07-1.65-.69-3.71-1.55-3.71-4.32a2.6,2.6,0,0,1,1.2-2.19c1.54-1,4.25-1,7.06.18,4.09,1.66,14.8,4.27,14.91,4.3a.52.52,0,0,1,.38.41l.92,5.71a.5.5,0,0,1-.42.57l-5.09.78ZM89.85,150.32a4.16,4.16,0,0,0-2.28.56,1.58,1.58,0,0,0-.76,1.36c0,2,1.23,2.62,3.09,3.4.75.31,1.77.65,2.94,1,1.71.57,3.64,1.22,5.56,2a62.54,62.54,0,0,0,6.33,2.26l4.49-.68-.8-4.89c-1.86-.46-10.93-2.72-14.73-4.27A10.53,10.53,0,0,0,89.85,150.32Z" style="fill:#263238"></path><path d="M125.54,158.26s-.46-16.53-3.09-22.55S102.53,100,102.53,100a18.63,18.63,0,0,1-5.71-6.64c-1.7-3.86-1.7-7-2-7.41s-3.71-3.24-4.33-3.24-2-.16-2-.16S91.26,78,94.35,78s9.11,8,9.26,8.49,1.55,2.78,5.87,9.89,14.06,24.09,16.53,30.58,6,14.82,7.1,21.16.62,9.11.62,9.11Z" style="fill:#5c5c5c"></path><path d="M125.54,158.76a.47.47,0,0,1-.32-.12.53.53,0,0,1-.18-.37c0-.16-.49-16.49-3-22.36s-18.77-33.69-19.85-35.53a18.81,18.81,0,0,1-5.79-6.79,24.45,24.45,0,0,1-1.78-6.35,6.47,6.47,0,0,0-.2-1,20.33,20.33,0,0,0-3.94-3h0c-.61,0-2-.15-2-.15A.48.48,0,0,1,88,82.8a.48.48,0,0,1,0-.48c.12-.2,3-4.87,6.3-4.87s9.51,8.15,9.74,8.83c.14.44,2,3.47,5.82,9.79,4.41,7.24,14.11,24.23,16.56,30.66.43,1.13.9,2.32,1.38,3.54,2.27,5.83,4.85,12.43,5.75,17.71,1.09,6.34.64,9.16.62,9.28a.49.49,0,0,1-.43.41l-8.18,1.08ZM89.35,82.17c.4,0,.86.07,1.13.07.94,0,4.45,3,4.74,3.46a4,4,0,0,1,.35,1.38,23.71,23.71,0,0,0,1.7,6.11,18.13,18.13,0,0,0,5.55,6.43.43.43,0,0,1,.14.16c.71,1.21,17.34,29.75,20,35.73,2.39,5.49,3,19.2,3.11,22.18l7.25-1a35.74,35.74,0,0,0-.65-8.58c-.89-5.18-3.45-11.73-5.71-17.51-.47-1.23-.94-2.42-1.37-3.56-2.43-6.37-12.09-23.27-16.49-30.49-4.75-7.82-5.75-9.5-5.91-10-.44-.89-6.14-8.15-8.79-8.15C92.25,78.45,90.23,80.94,89.35,82.17Z" style="fill:#263238"></path><path d="M102.53,100l5.56-2.31a83.74,83.74,0,0,1-4.94-7.42c-1.08-2.16-.31-4.17.46-3.86" style="fill:#949494"></path><path d="M102.53,100.53a.5.5,0,0,1-.19-1l5-2.07a76.56,76.56,0,0,1-4.61-7c-.86-1.73-.68-3.52,0-4.26A1,1,0,0,1,103.8,86a.51.51,0,0,1,.28.65.51.51,0,0,1-.65.28,4.07,4.07,0,0,0-.18.37,3.8,3.8,0,0,0,.35,2.8,84.39,84.39,0,0,0,4.89,7.34.5.5,0,0,1-.21.76l-5.56,2.32A.58.58,0,0,1,102.53,100.53Z" style="fill:#263238"></path><line x1="95.58" y1="87.37" x2="102.07" y2="85.05" style="fill:#949494"></line><path d="M95.58,87.87a.5.5,0,0,1-.17-1l6.49-2.32a.5.5,0,0,1,.34.94l-6.49,2.32A.51.51,0,0,1,95.58,87.87Z" style="fill:#263238"></path><ellipse cx="121.76" cy="126.83" rx="2.09" ry="2.24" style="fill:#fff"></ellipse><path d="M121.76,129.57a2.74,2.74,0,1,1,2.58-2.74A2.67,2.67,0,0,1,121.76,129.57Zm0-4.48a1.75,1.75,0,1,0,1.58,1.74A1.67,1.67,0,0,0,121.76,125.09Z" style="fill:#263238"></path><path d="M134.19,129.92a2.09,2.09,0,1,1-2.08-2.24A2.16,2.16,0,0,1,134.19,129.92Z" style="fill:#fff"></path><path d="M132.11,132.66a2.74,2.74,0,1,1,2.58-2.74A2.67,2.67,0,0,1,132.11,132.66Zm0-4.48a1.75,1.75,0,1,0,1.58,1.74A1.67,1.67,0,0,0,132.11,128.18Z" style="fill:#263238"></path><path d="M176.05,132.93a2.09,2.09,0,1,1-2.09-2.24A2.17,2.17,0,0,1,176.05,132.93Z" style="fill:#fff"></path><path d="M174,135.67a2.74,2.74,0,1,1,2.59-2.74A2.67,2.67,0,0,1,174,135.67Zm0-4.48a1.75,1.75,0,1,0,1.59,1.74A1.67,1.67,0,0,0,174,131.19Z" style="fill:#263238"></path><path d="M156.64,165.93a2.74,2.74,0,1,1,2.59-2.74A2.66,2.66,0,0,1,156.64,165.93Zm0-4.48a1.75,1.75,0,1,0,1.59,1.74A1.67,1.67,0,0,0,156.64,161.45Z" style="fill:#263238"></path><path d="M104.46,157.25a2.09,2.09,0,1,1-2.08-2.23A2.16,2.16,0,0,1,104.46,157.25Z" style="fill:#fff"></path><path d="M102.38,160a2.74,2.74,0,1,1,2.58-2.74A2.66,2.66,0,0,1,102.38,160Zm0-4.47a1.74,1.74,0,1,0,1.58,1.73A1.67,1.67,0,0,0,102.38,155.52Z" style="fill:#263238"></path><path d="M132.42,183.84a2.15,2.15,0,1,1-2.09-1.64A1.91,1.91,0,0,1,132.42,183.84Z" style="fill:#fff"></path><path d="M130.33,186a2.18,2.18,0,1,1,2.59-2.14A2.4,2.4,0,0,1,130.33,186Zm0-3.28c-.86,0-1.58.52-1.58,1.14s.72,1.14,1.58,1.14,1.59-.52,1.59-1.14S131.19,182.7,130.33,182.7Z" style="fill:#263238"></path><ellipse cx="136.35" cy="175.48" rx="2.08" ry="1.51" style="fill:#fff"></ellipse><path d="M136.35,177.5a2.33,2.33,0,0,1-2.58-2c0-1.13,1.13-2,2.58-2s2.59.88,2.59,2A2.34,2.34,0,0,1,136.35,177.5Zm0-3c-.86,0-1.58.46-1.58,1s.72,1,1.58,1,1.59-.47,1.59-1S137.21,174.47,136.35,174.47Z" style="fill:#263238"></path><path d="M104.69,96.4a2.09,2.09,0,1,1-2.08-2.24A2.16,2.16,0,0,1,104.69,96.4Z" style="fill:#fff"></path><path d="M102.61,99.14a2.74,2.74,0,1,1,2.58-2.74A2.67,2.67,0,0,1,102.61,99.14Zm0-4.48a1.75,1.75,0,1,0,1.58,1.74A1.67,1.67,0,0,0,102.61,94.66Z" style="fill:#263238"></path></g></svg>
